<svg width="24" height="24" viewBox="0 0 24 24" fill="none" xmlns="http://www.w3.org/2000/svg">
<g clip-path="url(#clip0_2062_9033)">
<path d="M4.02001 5.97C2.70624 7.70547 1.99677 9.82334 2.00001 12C2.00001 17.52 6.48001 22 12 22C17.52 22 22 17.52 22 12C22 6.48 17.52 2 12 2" stroke="#ADB5BD" stroke-width="1.5" stroke-linecap="round" stroke-linejoin="round"/>
<path d="M5 12C5 15.87 8.13 19 12 19C15.87 19 19 15.87 19 12C19 8.13 15.87 5 12 5" stroke="#ADB5BD" stroke-width="1.5" stroke-linecap="round" stroke-linejoin="round"/>
<path d="M12 16C14.21 16 16 14.21 16 12C16 9.79 14.21 8 12 8" stroke="#ADB5BD" stroke-width="1.5" stroke-linecap="round" stroke-linejoin="round"/>
</g>
<defs>
<clipPath id="clip0_2062_9033">
<rect width="24" height="24" fill="white"/>
</clipPath>
</defs>
</svg>
