<svg width="22" height="22" viewBox="0 0 22 22" fill="none" xmlns="http://www.w3.org/2000/svg">
<path d="M17 6.912H16.87C14.98 6.852 13.57 5.392 13.57 3.592C13.57 1.752 15.07 0.262 16.9 0.262C18.73 0.262 20.23 1.762 20.23 3.592C20.2312 4.45666 19.8958 5.28784 19.2947 5.90943C18.6937 6.53102 17.8742 6.89419 17.01 6.922C17.01 6.912 17.01 6.912 17 6.912ZM16.9 1.752C15.89 1.752 15.07 2.572 15.07 3.582C15.07 4.572 15.84 5.372 16.83 5.412C16.84 5.402 16.92 5.402 17.01 5.412C17.4835 5.38078 17.9264 5.16705 18.2455 4.81582C18.5646 4.46458 18.7349 4.00324 18.7206 3.52893C18.7064 3.05462 18.5086 2.60435 18.1691 2.27291C17.8295 1.94147 17.3745 1.75473 16.9 1.752ZM17.009 14.28C16.619 14.28 16.229 14.25 15.839 14.18C15.7417 14.1631 15.6488 14.1272 15.5654 14.0742C15.4821 14.0213 15.41 13.9525 15.3534 13.8717C15.2967 13.7908 15.2565 13.6996 15.2352 13.6032C15.2139 13.5068 15.2117 13.4072 15.229 13.31C15.2459 13.2127 15.2818 13.1198 15.3348 13.0364C15.3877 12.9531 15.4565 12.881 15.5373 12.8244C15.6182 12.7677 15.7094 12.7275 15.8058 12.7062C15.9022 12.6849 16.0018 12.6827 16.099 12.7C17.329 12.91 18.629 12.68 19.499 12.1C19.969 11.79 20.219 11.4 20.219 11.01C20.219 10.62 19.959 10.24 19.499 9.93C18.629 9.35 17.309 9.12 16.069 9.34C15.659 9.42 15.269 9.14 15.199 8.73C15.129 8.32 15.399 7.93 15.809 7.86C17.439 7.57 19.129 7.88 20.329 8.68C21.209 9.27 21.719 10.11 21.719 11.01C21.719 11.9 21.219 12.75 20.329 13.35C19.419 13.95 18.239 14.28 17.009 14.28ZM4.97 6.91H4.95C4.08726 6.88299 3.26886 6.52145 2.66792 5.90184C2.06697 5.28223 1.73062 4.45316 1.73 3.59C1.73 1.75 3.23 0.25 5.06 0.25C6.89 0.25 8.39 1.75 8.39 3.58C8.39 5.39 6.98 6.85 5.18 6.91L4.97 6.16L5.04 6.91H4.97ZM5.07 5.41C5.13 5.41 5.18 5.41 5.24 5.42C6.13 5.38 6.91 4.58 6.91 3.59C6.90947 3.23244 6.80419 2.88286 6.60719 2.58447C6.41018 2.28607 6.13007 2.05192 5.80147 1.91095C5.47287 1.76999 5.11017 1.72837 4.75818 1.79126C4.40618 1.85414 4.08033 2.01876 3.82086 2.26478C3.56139 2.51081 3.37968 2.82746 3.29818 3.17561C3.21667 3.52376 3.23895 3.88816 3.36225 4.22379C3.48555 4.55942 3.70448 4.85158 3.99198 5.06417C4.27949 5.27676 4.62297 5.40046 4.98 5.42C4.99 5.41 5.03 5.41 5.07 5.41ZM4.96 14.28C3.73 14.28 2.55 13.95 1.64 13.35C0.76 12.76 0.25 11.91 0.25 11.01C0.25 10.12 0.76 9.27 1.64 8.68C2.84 7.88 4.53 7.57 6.16 7.86C6.57 7.93 6.84 8.32 6.77 8.73C6.7 9.14 6.31 9.42 5.9 9.34C4.66 9.12 3.35 9.35 2.47 9.93C2 10.24 1.75 10.62 1.75 11.01C1.75 11.4 2.01 11.79 2.47 12.1C3.34 12.68 4.64 12.91 5.87 12.7C6.28 12.63 6.67 12.91 6.74 13.31C6.81 13.72 6.54 14.11 6.13 14.18C5.74 14.25 5.35 14.28 4.96 14.28ZM11 14.38H10.87C8.98 14.32 7.57 12.86 7.57 11.06C7.57 9.22 9.07 7.73 10.9 7.73C12.73 7.73 14.23 9.23 14.23 11.06C14.2312 11.9247 13.8958 12.7558 13.2947 13.3774C12.6937 13.999 11.8742 14.3622 11.01 14.39C11.01 14.38 11.01 14.38 11 14.38ZM10.9 9.22C9.89 9.22 9.07 10.04 9.07 11.05C9.07 12.04 9.84 12.84 10.83 12.88C10.84 12.87 10.92 12.87 11.01 12.88C11.98 12.83 12.73 12.03 12.74 11.05C12.74 10.05 11.92 9.22 10.9 9.22ZM11.001 21.759C9.801 21.759 8.601 21.449 7.671 20.819C6.791 20.229 6.281 19.389 6.281 18.489C6.281 17.599 6.781 16.739 7.671 16.149C9.541 14.909 12.471 14.909 14.331 16.149C15.211 16.739 15.721 17.579 15.721 18.479C15.721 19.369 15.221 20.229 14.331 20.819C13.401 21.439 12.201 21.759 11.001 21.759ZM8.501 17.409C8.031 17.719 7.781 18.109 7.781 18.499C7.781 18.889 8.041 19.269 8.501 19.579C9.851 20.489 12.141 20.489 13.491 19.579C13.961 19.269 14.211 18.879 14.211 18.489C14.211 18.099 13.951 17.719 13.491 17.409C12.151 16.499 9.861 16.509 8.501 17.409Z" fill="#ADB5BD"/>
</svg>
