<svg width="24" height="24" viewBox="0 0 24 24" fill="none" xmlns="http://www.w3.org/2000/svg">
<g clip-path="url(#clip0_2062_9109)">
<path d="M12.1198 12.7805C12.0401 12.7705 11.9595 12.7705 11.8798 12.7805C11.0317 12.7519 10.228 12.3949 9.63831 11.7847C9.04866 11.1745 8.71929 10.359 8.71977 9.51047C8.71977 7.70047 10.1798 6.23047 11.9998 6.23047C12.8592 6.22898 13.6848 6.56528 14.2986 7.16688C14.9124 7.76847 15.2652 8.58716 15.2809 9.44646C15.2966 10.3058 14.9741 11.1368 14.3827 11.7605C13.7914 12.3842 12.9787 12.7505 12.1198 12.7805V12.7805ZM18.7398 19.3805C16.902 21.0695 14.4958 22.0049 11.9998 22.0005C9.39977 22.0005 7.03977 21.0105 5.25977 19.3805C5.35977 18.4405 5.95977 17.5205 7.02977 16.8005C9.76977 14.9805 14.2498 14.9805 16.9698 16.8005C18.0398 17.5205 18.6398 18.4405 18.7398 19.3805V19.3805Z" stroke="#ADB5BD" stroke-width="1.5" stroke-linecap="round" stroke-linejoin="round"/>
<path d="M12 22C17.523 22 22 17.523 22 12C22 6.477 17.523 2 12 2C6.477 2 2 6.477 2 12C2 17.523 6.477 22 12 22Z" stroke="#ADB5BD" stroke-width="1.5" stroke-linecap="round" stroke-linejoin="round"/>
</g>
<defs>
<clipPath id="clip0_2062_9109">
<rect width="24" height="24" fill="white"/>
</clipPath>
</defs>
</svg>
