<svg width="24" height="24" viewBox="0 0 24 24" fill="none" xmlns="http://www.w3.org/2000/svg">
<g clip-path="url(#clip0_2062_9088)">
<path d="M21.81 3.93988C20.27 7.77988 16.41 12.9999 13.18 15.5899L11.21 17.1699C10.96 17.3499 10.71 17.5099 10.43 17.6199C10.43 17.4399 10.42 17.2399 10.39 17.0499C10.28 16.2099 9.90002 15.4299 9.23002 14.7599C8.55002 14.0799 7.72002 13.6799 6.87002 13.5699C6.67002 13.5599 6.47002 13.5399 6.27002 13.5599C6.38002 13.2499 6.55002 12.9599 6.76002 12.7199L8.32002 10.7499C10.9 7.51988 16.14 3.63988 19.97 2.10988C20.56 1.88988 21.13 2.04988 21.49 2.41988C21.87 2.78988 22.05 3.35988 21.81 3.93988V3.93988Z" stroke="#ADB5BD" stroke-width="1.5" stroke-linecap="round" stroke-linejoin="round"/>
<path d="M14.2398 14.4702C14.2398 11.8602 12.1198 9.74023 9.50979 9.74023M10.4298 17.6202C10.4298 18.7202 10.0098 19.7702 9.21979 20.5702C8.60979 21.1802 7.77979 21.6002 6.78979 21.7302L4.32979 22.0002C2.98979 22.1502 1.83979 21.0102 1.99979 19.6502L2.26979 17.1902C2.50979 15.0002 4.33979 13.6002 6.27979 13.5602C6.47979 13.5502 6.68979 13.5602 6.87979 13.5702C7.72979 13.6802 8.55979 14.0702 9.23979 14.7602C9.90979 15.4302 10.2898 16.2102 10.3998 17.0502C10.4098 17.2402 10.4298 17.4302 10.4298 17.6202V17.6202Z" stroke="#ADB5BD" stroke-width="1.5" stroke-linecap="round" stroke-linejoin="round"/>
<path d="M20.1198 12.7305L20.8598 13.4605C22.3498 14.9505 22.3498 16.4205 20.8598 17.9105L17.8998 20.8705C16.4298 22.3405 14.9398 22.3405 13.4698 20.8705M3.10982 10.5105C1.63982 9.02055 1.63982 7.55055 3.10982 6.06055L6.06982 3.10055C7.53982 1.63055 9.02982 1.63055 10.4998 3.10055L11.2398 3.84055M11.2498 3.85055L7.54982 7.55055M20.1198 12.7305L17.1598 15.6805" stroke="#ADB5BD" stroke-width="1.5" stroke-linecap="round"/>
</g>
<defs>
<clipPath id="clip0_2062_9088">
<rect width="24" height="24" fill="white"/>
</clipPath>
</defs>
</svg>
