<svg width="24" height="24" viewBox="0 0 24 24" fill="none" xmlns="http://www.w3.org/2000/svg">
<g clip-path="url(#clip0_2062_9052)">
<path d="M15.5898 13.26C16.9503 13.26 18.2552 12.7195 19.2172 11.7575C20.1793 10.7954 20.7198 9.49056 20.7198 8.13C20.7198 6.76944 20.1793 5.4646 19.2172 4.50254C18.2552 3.54048 16.9503 3 15.5898 3C14.2292 3 12.9244 3.54048 11.9623 4.50254C11.0003 5.4646 10.4598 6.76944 10.4598 8.13C10.4598 9.49056 11.0003 10.7954 11.9623 11.7575C12.9244 12.7195 14.2292 13.26 15.5898 13.26V13.26ZM6.35979 20.44C7.17665 20.44 7.96006 20.1155 8.53767 19.5379C9.11529 18.9603 9.43979 18.1769 9.43979 17.36C9.43979 16.5431 9.11529 15.7597 8.53767 15.1821C7.96006 14.6045 7.17665 14.28 6.35979 14.28C5.54292 14.28 4.75951 14.6045 4.1819 15.1821C3.60428 15.7597 3.27979 16.5431 3.27979 17.36C3.27979 18.1769 3.60428 18.9603 4.1819 19.5379C4.75951 20.1155 5.54292 20.44 6.35979 20.44V20.44ZM16.6198 23C16.956 23 17.2889 22.9338 17.5995 22.8051C17.91 22.6765 18.1923 22.4879 18.43 22.2502C18.6677 22.0125 18.8563 21.7303 18.9849 21.4197C19.1136 21.1091 19.1798 20.7762 19.1798 20.44C19.1798 20.1038 19.1136 19.7709 18.9849 19.4603C18.8563 19.1497 18.6677 18.8675 18.43 18.6298C18.1923 18.3921 17.91 18.2035 17.5995 18.0749C17.2889 17.9462 16.956 17.88 16.6198 17.88C15.9408 17.88 15.2897 18.1497 14.8096 18.6298C14.3295 19.1099 14.0598 19.761 14.0598 20.44C14.0598 21.119 14.3295 21.7701 14.8096 22.2502C15.2897 22.7303 15.9408 23 16.6198 23V23Z" stroke="#ADB5BD" stroke-width="1.5" stroke-miterlimit="10"/>
</g>
<defs>
<clipPath id="clip0_2062_9052">
<rect width="24" height="24" fill="white"/>
</clipPath>
</defs>
</svg>
