<svg width="18" height="18" viewBox="0 0 18 18" fill="none" xmlns="http://www.w3.org/2000/svg">
<path d="M16.9864 17.2408L15.3871 15.6068M8.59021 16.4238C9.58781 16.4238 10.5756 16.223 11.4973 15.833C12.4189 15.4429 13.2564 14.8712 13.9618 14.1504C14.6672 13.4297 15.2268 12.5741 15.6085 11.6324C15.9903 10.6907 16.1868 9.68137 16.1868 8.66209C16.1868 7.64281 15.9903 6.63351 15.6085 5.69182C15.2268 4.75012 14.6672 3.89448 13.9618 3.17374C13.2564 2.453 12.4189 1.88128 11.4973 1.49121C10.5756 1.10115 9.58781 0.900391 8.59021 0.900391C6.57548 0.900391 4.64326 1.71814 3.21863 3.17374C1.794 4.62934 0.993652 6.60356 0.993652 8.66209C0.993652 10.7206 1.794 12.6948 3.21863 14.1504C4.64326 15.606 6.57548 16.4238 8.59021 16.4238V16.4238Z" stroke="#F8F9FA" stroke-width="1.5" stroke-linecap="round" stroke-linejoin="round"/>
</svg>
