<svg width="24" height="24" viewBox="0 0 24 24" fill="none" xmlns="http://www.w3.org/2000/svg">
<g clip-path="url(#clip0_2062_9127)">
<path d="M12 15C12.7956 15 13.5587 14.6839 14.1213 14.1213C14.6839 13.5587 15 12.7956 15 12C15 11.2044 14.6839 10.4413 14.1213 9.87868C13.5587 9.31607 12.7956 9 12 9C11.2044 9 10.4413 9.31607 9.87868 9.87868C9.31607 10.4413 9 11.2044 9 12C9 12.7956 9.31607 13.5587 9.87868 14.1213C10.4413 14.6839 11.2044 15 12 15V15Z" stroke="#ADB5BD" stroke-width="1.5" stroke-miterlimit="10" stroke-linecap="round" stroke-linejoin="round"/>
<path d="M2 12.8794V11.1194C2 10.0794 2.85 9.21945 3.9 9.21945C5.71 9.21945 6.45 7.93945 5.54 6.36945C5.02 5.46945 5.33 4.29945 6.24 3.77945L7.97 2.78945C8.76 2.31945 9.78 2.59945 10.25 3.38945L10.36 3.57945C11.26 5.14945 12.74 5.14945 13.65 3.57945L13.76 3.38945C14.23 2.59945 15.25 2.31945 16.04 2.78945L17.77 3.77945C18.68 4.29945 18.99 5.46945 18.47 6.36945C17.56 7.93945 18.3 9.21945 20.11 9.21945C21.15 9.21945 22.01 10.0694 22.01 11.1194V12.8794C22.01 13.9194 21.16 14.7794 20.11 14.7794C18.3 14.7794 17.56 16.0594 18.47 17.6294C18.99 18.5394 18.68 19.6994 17.77 20.2194L16.04 21.2094C15.25 21.6794 14.23 21.3994 13.76 20.6094L13.65 20.4194C12.75 18.8494 11.27 18.8494 10.36 20.4194L10.25 20.6094C9.78 21.3994 8.76 21.6794 7.97 21.2094L6.24 20.2194C5.8041 19.9685 5.48558 19.5548 5.35435 19.0692C5.22311 18.5836 5.28988 18.0658 5.54 17.6294C6.45 16.0594 5.71 14.7794 3.9 14.7794C2.85 14.7794 2 13.9194 2 12.8794V12.8794Z" stroke="#ADB5BD" stroke-width="1.5" stroke-miterlimit="10" stroke-linecap="round" stroke-linejoin="round"/>
</g>
<defs>
<clipPath id="clip0_2062_9127">
<rect width="24" height="24" fill="white"/>
</clipPath>
</defs>
</svg>
