<svg width="13" height="15" viewBox="0 0 13 15" fill="none" xmlns="http://www.w3.org/2000/svg">
<path d="M10.0002 10C9.66661 9.99994 9.33644 10.0668 9.02919 10.1966C8.72194 10.3264 8.44385 10.5165 8.2114 10.7557L5.33015 8.9038C5.55679 8.32261 5.55679 7.67749 5.33015 7.0963L8.2114 5.24442C8.64419 5.68775 9.22617 5.95458 9.84451 5.99319C10.4629 6.0318 11.0735 5.83944 11.5581 5.45339C12.0426 5.06735 12.3666 4.51513 12.4672 3.90379C12.5677 3.29246 12.4377 2.66557 12.1023 2.14466C11.7669 1.62375 11.25 1.24593 10.6519 1.08445C10.0538 0.922981 9.41696 0.989355 8.86499 1.27071C8.31301 1.55206 7.88517 2.02835 7.6644 2.60723C7.44364 3.18611 7.44569 3.82634 7.67015 4.4038L4.7889 6.25567C4.44194 5.89947 3.99664 5.65483 3.50992 5.55301C3.02321 5.4512 2.51718 5.49685 2.05654 5.68411C1.5959 5.87138 1.20157 6.19176 0.923949 6.6043C0.646333 7.01684 0.498047 7.5028 0.498047 8.00005C0.498047 8.4973 0.646333 8.98326 0.923949 9.3958C1.20157 9.80834 1.5959 10.1287 2.05654 10.316C2.51718 10.5033 3.02321 10.5489 3.50992 10.4471C3.99664 10.3453 4.44194 10.1006 4.7889 9.74442L7.67015 11.5963C7.47713 12.0941 7.44857 12.6407 7.58865 13.1559C7.72872 13.6712 8.03008 14.128 8.44859 14.4596C8.8671 14.7912 9.38077 14.98 9.91439 14.9985C10.448 15.0171 10.9735 14.8642 11.414 14.5625C11.8545 14.2607 12.1868 13.8258 12.3623 13.3215C12.5377 12.8173 12.5471 12.27 12.389 11.76C12.231 11.25 11.9138 10.804 11.4839 10.4873C11.0541 10.1706 10.5341 9.99985 10.0002 10ZM10.0002 2.00005C10.2968 2.00005 10.5868 2.08802 10.8335 2.25284C11.0802 2.41767 11.2724 2.65193 11.386 2.92602C11.4995 3.20011 11.5292 3.50171 11.4713 3.79268C11.4135 4.08366 11.2706 4.35093 11.0608 4.56071C10.851 4.77049 10.5838 4.91335 10.2928 4.97123C10.0018 5.02911 9.70022 4.9994 9.42613 4.88587C9.15204 4.77234 8.91777 4.58008 8.75295 4.3334C8.58812 4.08673 8.50015 3.79672 8.50015 3.50005C8.50015 3.10222 8.65819 2.72069 8.93949 2.43939C9.2208 2.15808 9.60233 2.00005 10.0002 2.00005ZM3.00015 9.50005C2.70348 9.50005 2.41347 9.41208 2.1668 9.24725C1.92012 9.08243 1.72786 8.84816 1.61433 8.57408C1.5008 8.29999 1.47109 7.99839 1.52897 7.70741C1.58685 7.41644 1.72971 7.14917 1.93949 6.93939C2.14927 6.72961 2.41654 6.58675 2.70752 6.52887C2.99849 6.47099 3.30009 6.5007 3.57418 6.61423C3.84826 6.72776 4.08253 6.92002 4.24735 7.16669C4.41218 7.41337 4.50015 7.70338 4.50015 8.00005C4.50015 8.39787 4.34212 8.77941 4.06081 9.06071C3.77951 9.34201 3.39798 9.50005 3.00015 9.50005ZM10.0002 14.0001C9.70348 14.0001 9.41347 13.9121 9.1668 13.7473C8.92012 13.5824 8.72786 13.3482 8.61433 13.0741C8.5008 12.8 8.4711 12.4984 8.52897 12.2074C8.58685 11.9164 8.72971 11.6492 8.93949 11.4394C9.14927 11.2296 9.41654 11.0868 9.70752 11.0289C9.99849 10.971 10.3001 11.0007 10.5742 11.1142C10.8483 11.2278 11.0825 11.42 11.2474 11.6667C11.4122 11.9134 11.5002 12.2034 11.5002 12.5C11.5002 12.8979 11.3421 13.2794 11.0608 13.5607C10.7795 13.842 10.398 14.0001 10.0002 14.0001Z" fill="#212529"/>
</svg>
