<svg width="24" height="24" viewBox="0 0 24 24" fill="none" xmlns="http://www.w3.org/2000/svg">
<g clip-path="url(#clip0_2062_8992)">
<path d="M14.13 11.3393C14.2238 10.9689 14.2197 10.5805 14.1183 10.2121C14.0169 9.84379 13.8215 9.50809 13.5513 9.23792C13.2812 8.96775 12.9455 8.77239 12.5771 8.67096C12.2087 8.56952 11.8204 8.5655 11.45 8.65929C10.68 8.84929 10.05 9.47929 9.85997 10.2493C9.76619 10.6197 9.77021 11.0081 9.87164 11.3764C9.97307 11.7448 10.1684 12.0805 10.4386 12.3507C10.7088 12.6208 11.0445 12.8162 11.4128 12.9176C11.7812 13.0191 12.1696 13.0231 12.54 12.9293C13.32 12.7393 13.95 12.1093 14.13 11.3393Z" stroke="#ADB5BD" stroke-width="1.5" stroke-linecap="round" stroke-linejoin="round"/>
<path d="M18.01 17.19C18.8885 16.3717 19.5888 15.381 20.0671 14.2798C20.5454 13.1786 20.7915 11.9906 20.79 10.79C20.79 9.63568 20.5626 8.49266 20.1209 7.42621C19.6791 6.35976 19.0317 5.39076 18.2154 4.57453C17.3992 3.7583 16.4302 3.11084 15.3637 2.6691C14.2973 2.22736 13.1543 2 12 2C10.8456 2 9.70263 2.22736 8.63617 2.6691C7.56972 3.11084 6.60072 3.7583 5.78449 4.57453C4.96827 5.39076 4.3208 6.35976 3.87906 7.42621C3.43732 8.49266 3.20996 9.63568 3.20996 10.79C3.20996 13.33 4.28996 15.62 6.01996 17.22" stroke="#ADB5BD" stroke-width="1.5" stroke-linecap="round" stroke-linejoin="round"/>
<path d="M7.99977 14.5508C7.07977 13.5708 6.50977 12.2508 6.50977 10.7908C6.50977 7.76078 8.96977 5.30078 11.9998 5.30078C15.0298 5.30078 17.4898 7.76078 17.4898 10.7908C17.4898 12.2508 16.9198 13.5608 15.9998 14.5508M10.2998 16.6608L8.85977 18.4508C7.71977 19.8808 8.72977 21.9908 10.5598 21.9908H13.4298C15.2598 21.9908 16.2798 19.8708 15.1298 18.4508L13.6898 16.6608C12.8298 15.5708 11.1698 15.5708 10.2998 16.6608V16.6608Z" stroke="#ADB5BD" stroke-width="1.5" stroke-linecap="round" stroke-linejoin="round"/>
</g>
<defs>
<clipPath id="clip0_2062_8992">
<rect width="24" height="24" fill="white"/>
</clipPath>
</defs>
</svg>
