<svg width="357" height="163" viewBox="0 0 357 163" fill="none" xmlns="http://www.w3.org/2000/svg">
<g clip-path="url(#clip0_3152_50877)">
<mask id="mask0_3152_50877" style="mask-type:luminance" maskUnits="userSpaceOnUse" x="120" y="2" width="117" height="68">
<path d="M236.5 2H120.5V70H236.5V2Z" fill="white"/>
</mask>
<g mask="url(#mask0_3152_50877)">
<path d="M123.109 65.4066L162.105 9.15039L199.959 65.4066H153.25L192.419 9.15039L232.439 65.4066" stroke="white" stroke-width="4" stroke-miterlimit="10"/>
</g>
</g>
<path d="M23.5 143.622H30.9972L36.7583 130.36H64.6953L70.3775 143.622H78.1115L54.357 89.6585H48.1225L23.5 143.622ZM62.1699 124.415H39.3625L50.9635 97.8902H51.1214L62.1699 124.415ZM84.9854 143.622H91.1411V86H84.9854V143.622ZM123.595 107.951H112.704V97.814H106.549V107.951H98.499V112.982H106.549V132.57C106.549 139.963 107.969 144.537 116.729 144.537C119.018 144.537 121.78 144.155 123.911 143.241L123.674 137.829C122.017 138.668 120.044 139.049 118.229 139.049C112.783 139.049 112.704 135.39 112.704 130.817V112.982H123.595V107.951ZM177.146 96.747C172.411 90.8018 164.993 88.2866 157.417 88.2866C140.844 88.2866 129.006 100.787 129.006 116.64C129.006 133.027 141.396 144.994 157.417 144.994C166.334 144.994 173.595 142.021 178.567 135.543L173.595 131.503C169.649 136.381 164.204 139.049 157.417 139.049C144.869 139.049 136.109 129.14 136.109 116.64C136.109 104.826 144.947 94.2317 157.417 94.2317C162.783 94.2317 168.071 96.4421 171.385 100.787L177.146 96.747ZM190.097 116.412C193.017 113.82 197.121 112.524 201.067 112.524C206.828 112.524 210.221 115.192 210.221 120.375V121.442H207.854C198.778 121.442 184.572 122.128 184.572 133.942C184.572 140.878 190.807 144.537 198.305 144.537C203.908 144.537 208.011 141.945 210.458 138.287H210.616C210.616 139.811 210.616 142.021 211.01 143.622H216.929C216.614 141.793 216.377 139.506 216.377 137.448V122.128C216.377 112.067 211.8 107.037 200.909 107.037C195.542 107.037 190.018 108.79 186.23 112.524L190.097 116.412ZM210.221 126.473V128.759C210.063 134.552 206.433 139.506 199.33 139.506C194.674 139.506 191.202 137.829 191.202 133.332C191.202 128.53 196.253 126.473 204.066 126.473H210.221ZM227.626 143.622H233.782V126.244C233.782 118.088 237.254 112.524 245.225 112.524C250.276 112.524 252.327 115.573 252.327 123.424V143.622H258.483V123.043C258.483 116.64 262.824 112.524 268.032 112.524C275.214 112.524 277.029 117.326 277.029 122.28V143.622H283.185V121.976C283.185 112.753 279.712 107.037 269.137 107.037C263.534 107.037 260.14 109.628 257.457 113.82C256.273 111.381 253.748 107.037 245.777 107.037C239.701 107.037 235.123 110.314 233.466 113.82H233.308C233.308 111.838 233.15 109.857 233.15 107.951H227.31C227.31 110.314 227.626 113.134 227.626 116.412V143.622ZM294.514 161H300.67V137.296H300.828C303.116 141.335 308.404 144.537 315.033 144.537C325.371 144.537 333.5 136.457 333.5 125.787C333.5 114.963 325.687 107.037 314.086 107.037C308.72 107.037 304.221 109.323 300.828 113.134H300.67V107.951H294.514V161ZM300.67 125.787C300.67 118.317 305.8 112.524 313.77 112.524C321.741 112.524 326.871 118.317 326.871 125.787C326.871 133.256 321.741 139.049 313.77 139.049C305.8 139.049 300.67 133.256 300.67 125.787Z" fill="white"/>
<defs>
<clipPath id="clip0_3152_50877">
<rect width="116" height="68" fill="white" transform="translate(120.5 2)"/>
</clipPath>
</defs>
</svg>
