<svg width="113" height="67" viewBox="0 0 113 67" fill="none" xmlns="http://www.w3.org/2000/svg">
<g clip-path="url(#clip0_3086_15806)">
<mask id="mask0_3086_15806" style="mask-type:luminance" maskUnits="userSpaceOnUse" x="35" y="2" width="42" height="24">
<path d="M76.6973 2H35.6973V26H76.6973V2Z" fill="white"/>
</mask>
<g mask="url(#mask0_3086_15806)">
<path d="M36.6196 24.3786L50.4025 4.52344L63.7821 24.3786H47.2728L61.1171 4.52344L75.2621 24.3786" stroke="#6A6FF5" stroke-width="1.75" stroke-miterlimit="10"/>
</g>
</g>
<path d="M1 58.269H3.66984L5.72141 53.6039H15.6701L17.6935 58.269H20.4477L11.9885 39.2869H9.76831L1 58.269ZM14.7708 51.5126H6.6488L10.78 42.1825H10.8362L14.7708 51.5126ZM22.8956 58.269H25.0877V38H22.8956V58.269ZM36.6449 45.7215H32.7666V42.1557H30.5745V45.7215H27.7079V47.491H30.5745V54.3814C30.5745 56.9821 31.0803 58.5907 34.1998 58.5907C35.0148 58.5907 35.9985 58.4566 36.7573 58.1349L36.673 56.2313C36.0828 56.5263 35.3802 56.6603 34.7338 56.6603C32.7947 56.6603 32.7666 55.3734 32.7666 53.7648V47.491H36.6449V45.7215ZM55.7149 41.7803C54.0287 39.6891 51.387 38.8043 48.689 38.8043C42.7873 38.8043 38.5717 43.2013 38.5717 48.7779C38.5717 54.5423 42.984 58.7516 48.689 58.7516C51.8647 58.7516 54.4503 57.7059 56.2208 55.427L54.4503 54.0061C53.0451 55.7219 51.1059 56.6603 48.689 56.6603C44.2205 56.6603 41.101 53.1749 41.101 48.7779C41.101 44.6223 44.2486 40.8956 48.689 40.8956C50.6001 40.8956 52.483 41.6731 53.6634 43.2013L55.7149 41.7803ZM60.3269 48.6975C61.3667 47.7859 62.8281 47.3302 64.2333 47.3302C66.2848 47.3302 67.4933 48.2685 67.4933 50.0917V50.467H66.6502C63.4182 50.467 58.3595 50.7083 58.3595 54.864C58.3595 57.3038 60.5798 58.5907 63.2496 58.5907C65.245 58.5907 66.7064 57.6791 67.5776 56.3922H67.6338C67.6338 56.9284 67.6338 57.7059 67.7743 58.269H69.8821C69.7697 57.6255 69.6854 56.8212 69.6854 56.0973V50.7083C69.6854 47.1693 68.0553 45.3998 64.177 45.3998C62.266 45.3998 60.2987 46.0164 58.9497 47.3302L60.3269 48.6975ZM67.4933 52.2365V53.0409C67.4371 55.0785 66.1443 56.8212 63.615 56.8212C61.9569 56.8212 60.7203 56.2313 60.7203 54.6495C60.7203 52.9604 62.5189 52.2365 65.3012 52.2365H67.4933ZM73.6913 58.269H75.8834V52.1561C75.8834 49.2874 77.1199 47.3302 79.9584 47.3302C81.757 47.3302 82.4877 48.4026 82.4877 51.1641V58.269H84.6798V51.0301C84.6798 48.7779 86.2255 47.3302 88.0804 47.3302C90.6378 47.3302 91.2842 49.0192 91.2842 50.7619V58.269H93.4763V50.6547C93.4763 47.4106 92.2397 45.3998 88.4738 45.3998C86.4784 45.3998 85.27 46.3114 84.3145 47.7859C83.8929 46.928 82.9936 45.3998 80.1551 45.3998C77.9912 45.3998 76.3611 46.5526 75.771 47.7859H75.7148C75.7148 47.0889 75.6585 46.3918 75.6585 45.7215H73.5789C73.5789 46.5526 73.6913 47.5446 73.6913 48.6975V58.269ZM97.5109 64.3818H99.703V56.0437H99.7592C100.574 57.4646 102.457 58.5907 104.818 58.5907C108.499 58.5907 111.394 55.7488 111.394 51.9952C111.394 48.1881 108.612 45.3998 104.481 45.3998C102.57 45.3998 100.968 46.2041 99.7592 47.5447H99.703V45.7215H97.5109V64.3818ZM99.703 51.9952C99.703 49.3678 101.53 47.3302 104.368 47.3302C107.207 47.3302 109.033 49.3678 109.033 51.9952C109.033 54.6227 107.207 56.6603 104.368 56.6603C101.53 56.6603 99.703 54.6227 99.703 51.9952Z" fill="#212529"/>
<defs>
<clipPath id="clip0_3086_15806">
<rect width="41" height="24" fill="white" transform="translate(35.6973 2)"/>
</clipPath>
</defs>
</svg>
