<svg width="120" height="120" viewBox="0 0 120 120" fill="none" xmlns="http://www.w3.org/2000/svg">
<circle cx="60" cy="60" r="60" fill="#FDF2E7"/>
<path d="M60 97.5C52.5832 97.5 45.333 95.3007 39.1661 91.1801C32.9993 87.0596 28.1928 81.2029 25.3545 74.3506C22.5162 67.4984 21.7736 59.9584 23.2206 52.6841C24.6675 45.4098 28.239 38.728 33.4835 33.4835C38.728 28.239 45.4098 24.6675 52.6841 23.2206C59.9584 21.7736 67.4984 22.5162 74.3506 25.3545C81.2029 28.1928 87.0596 32.9993 91.1801 39.1661C95.3007 45.333 97.5 52.5832 97.5 60C97.5 69.9456 93.5491 79.4839 86.5165 86.5165C79.4839 93.5491 69.9456 97.5 60 97.5ZM60 27.5C53.5721 27.5 47.2886 29.4061 41.944 32.9773C36.5994 36.5484 32.4338 41.6242 29.9739 47.5628C27.5141 53.5014 26.8705 60.0361 28.1245 66.3405C29.3785 72.6448 32.4738 78.4358 37.019 82.981C41.5643 87.5262 47.3552 90.6215 53.6596 91.8755C59.964 93.1296 66.4986 92.4859 72.4372 90.0261C78.3758 87.5662 83.4516 83.4006 87.0228 78.056C90.5939 72.7114 92.5 66.4279 92.5 60C92.5 51.3805 89.0759 43.114 82.981 37.019C76.8861 30.9241 68.6195 27.5 60 27.5Z" fill="#F38920"/>
<path d="M60 80C59.0111 80 58.0444 79.7068 57.2222 79.1574C56.3999 78.6079 55.759 77.8271 55.3806 76.9134C55.0022 75.9998 54.9031 74.9945 55.0961 74.0246C55.289 73.0546 55.7652 72.1637 56.4645 71.4645C57.1637 70.7652 58.0546 70.289 59.0246 70.0961C59.9945 69.9031 60.9998 70.0022 61.9134 70.3806C62.8271 70.759 63.6079 71.3999 64.1574 72.2221C64.7068 73.0444 65 74.0111 65 75C65 76.3261 64.4732 77.5979 63.5355 78.5355C62.5979 79.4732 61.3261 80 60 80Z" fill="#F38920"/>
<path d="M60 65C59.337 65 58.7011 64.7366 58.2322 64.2678C57.7634 63.7989 57.5 63.163 57.5 62.5V40C57.5 39.337 57.7634 38.7011 58.2322 38.2322C58.7011 37.7634 59.337 37.5 60 37.5C60.663 37.5 61.2989 37.7634 61.7678 38.2322C62.2366 38.7011 62.5 39.337 62.5 40V62.5C62.5 63.163 62.2366 63.7989 61.7678 64.2678C61.2989 64.7366 60.663 65 60 65Z" fill="#F38920"/>
</svg>
