<svg width="24" height="24" viewBox="0 0 24 24" fill="none" xmlns="http://www.w3.org/2000/svg">
<path d="M21.375 16.406C21.2893 16.4549 21.1948 16.4863 21.097 16.4986C20.9991 16.511 20.8998 16.5038 20.8047 16.4777C20.7097 16.4516 20.6207 16.407 20.5428 16.3464C20.465 16.2858 20.3999 16.2105 20.3512 16.1248L18.57 13.0123C17.5344 13.7125 16.392 14.24 15.1875 14.5741L15.7378 17.876C15.754 17.9732 15.7509 18.0727 15.7287 18.1687C15.7065 18.2647 15.6656 18.3554 15.6083 18.4356C15.551 18.5158 15.4784 18.5839 15.3948 18.636C15.3112 18.6882 15.2181 18.7233 15.1209 18.7395C15.0809 18.746 15.0405 18.7495 15 18.7498C14.8225 18.7495 14.6509 18.6863 14.5157 18.5715C14.3804 18.4567 14.2903 18.2976 14.2612 18.1226L13.7203 14.8807C12.5795 15.0395 11.4223 15.0395 10.2815 14.8807L9.74058 18.1226C9.71147 18.2979 9.62103 18.4573 9.48538 18.5721C9.34974 18.687 9.1777 18.75 8.99995 18.7498C8.9585 18.7496 8.91712 18.7462 8.8762 18.7395C8.77898 18.7233 8.6859 18.6882 8.60227 18.636C8.51864 18.5839 8.44611 18.5158 8.38882 18.4356C8.33153 18.3554 8.29061 18.2647 8.26839 18.1687C8.24617 18.0727 8.24309 17.9732 8.25933 17.876L8.81245 14.5741C7.60835 14.2389 6.46664 13.7105 5.43183 13.0095L3.6562 16.1248C3.55675 16.2981 3.39252 16.4248 3.19965 16.477C3.00678 16.5292 2.80107 16.5027 2.62776 16.4032C2.45446 16.3038 2.32777 16.1395 2.27555 15.9467C2.22333 15.7538 2.24987 15.5481 2.34933 15.3748L4.22433 12.0935C3.56573 11.5245 2.96013 10.897 2.41495 10.2185C2.34696 10.1426 2.29516 10.0536 2.2627 9.95704C2.23024 9.86045 2.2178 9.75824 2.22616 9.65668C2.23451 9.55512 2.26347 9.45632 2.31127 9.36632C2.35908 9.27633 2.42472 9.19701 2.5042 9.13323C2.58367 9.06944 2.67531 9.02252 2.77353 8.99533C2.87174 8.96815 2.97446 8.96126 3.07542 8.97509C3.17639 8.98892 3.27347 9.02318 3.36075 9.07578C3.44804 9.12838 3.52368 9.19821 3.58308 9.28102C5.13933 11.2066 7.86183 13.4998 12 13.4998C16.1381 13.4998 18.8606 11.2038 20.4168 9.28102C20.4755 9.19652 20.551 9.125 20.6386 9.07092C20.7261 9.01684 20.8238 8.98135 20.9257 8.96666C21.0275 8.95198 21.1313 8.9584 21.2306 8.98555C21.3298 9.01269 21.4224 9.05997 21.5026 9.12443C21.5828 9.1889 21.6489 9.26919 21.6968 9.36029C21.7446 9.45139 21.7732 9.55137 21.7807 9.65399C21.7883 9.75661 21.7746 9.85969 21.7406 9.95681C21.7066 10.0539 21.653 10.143 21.5831 10.2185C21.0379 10.897 20.4323 11.5245 19.7737 12.0935L21.6487 15.3748C21.699 15.4603 21.7319 15.555 21.7454 15.6533C21.7588 15.7516 21.7527 15.8517 21.7272 15.9476C21.7017 16.0435 21.6575 16.1334 21.597 16.2121C21.5366 16.2908 21.4611 16.3567 21.375 16.406Z" fill="#212529"/>
</svg>
