<svg width="120" height="120" viewBox="0 0 120 120" fill="none" xmlns="http://www.w3.org/2000/svg">
<circle cx="60" cy="60" r="59.75" fill="#EEFFF0" stroke="#CBF4CF" stroke-width="0.5"/>
<g clip-path="url(#clip0_2279_42415)">
<path d="M60 100C52.0888 100 44.3552 97.6541 37.7772 93.2588C31.1992 88.8635 26.0723 82.6164 23.0448 75.3074C20.0173 67.9983 19.2252 59.9556 20.7686 52.1964C22.312 44.4372 26.1216 37.3098 31.7157 31.7157C37.3098 26.1216 44.4372 22.312 52.1964 20.7686C59.9556 19.2252 67.9983 20.0173 75.3074 23.0448C82.6164 26.0723 88.8635 31.1992 93.2588 37.7772C97.6541 44.3552 100 52.0888 100 60C100 70.6087 95.7858 80.7828 88.2843 88.2843C80.7828 95.7858 70.6087 100 60 100ZM60 26.1539C53.3059 26.1539 46.7621 28.1389 41.1961 31.858C35.6301 35.577 31.292 40.8631 28.7303 47.0477C26.1685 53.2322 25.4982 60.0376 26.8042 66.6031C28.1102 73.1686 31.3337 79.1994 36.0672 83.9329C40.8006 88.6663 46.8315 91.8899 53.397 93.1958C59.9625 94.5018 66.7678 93.8315 72.9524 91.2698C79.137 88.708 84.423 84.3699 88.1421 78.8039C91.8611 73.238 93.8462 66.6942 93.8462 60C93.8462 51.0235 90.2803 42.4146 83.9329 36.0672C77.5855 29.7198 68.9766 26.1539 60 26.1539Z" fill="#0E8A1A"/>
<path d="M55.3841 77.8461C54.9796 77.8424 54.5798 77.759 54.2076 77.6006C53.8354 77.4422 53.4981 77.2119 53.2149 76.923L39.0611 62.7846C38.559 62.1942 38.2982 61.4361 38.3309 60.6617C38.3635 59.8874 38.6871 59.1539 39.2371 58.6079C39.787 58.0618 40.5228 57.7434 41.2973 57.7162C42.0719 57.6891 42.8281 57.9553 43.4149 58.4615L57.5534 72.6C57.9811 73.0302 58.2721 73.5773 58.3897 74.1725C58.5074 74.7676 58.4465 75.3843 58.2147 75.9449C57.9828 76.5056 57.5905 76.9852 57.0868 77.3235C56.5832 77.6617 55.9908 77.8436 55.3841 77.8461Z" fill="#0E8A1A"/>
<path d="M55.385 77.8462C54.7752 77.8467 54.179 77.6659 53.6721 77.3269C53.1651 76.9879 52.7704 76.5059 52.5379 75.9421C52.3055 75.3783 52.2458 74.7581 52.3665 74.1603C52.4872 73.5625 52.7828 73.0141 53.2158 72.5847L76.585 49.2308C77.1624 48.6535 77.9455 48.3291 78.762 48.3291C79.5785 48.3291 80.3615 48.6535 80.9389 49.2308C81.5162 49.8082 81.8406 50.5912 81.8406 51.4077C81.8406 52.2242 81.5162 53.0073 80.9389 53.5847L57.5543 76.9231C57.2711 77.212 56.9338 77.4423 56.5616 77.6007C56.1894 77.759 55.7895 77.8425 55.385 77.8462Z" fill="#0E8A1A"/>
</g>
<defs>
<clipPath id="clip0_2279_42415">
<rect width="80" height="80" fill="white" transform="translate(20 20)"/>
</clipPath>
</defs>
</svg>
