<svg width="578" height="577" viewBox="0 0 578 577" fill="none" xmlns="http://www.w3.org/2000/svg">
<path d="M68.5723 396.377H34.541V410.768H68.5723V396.377Z" fill="#EBEBEB"/>
<path d="M49.5909 414.524H15.5596V428.915H49.5909V414.524Z" fill="#EBEBEB"/>
<path d="M289.002 120.209H254.971V134.6H289.002V120.209Z" fill="#EBEBEB"/>
<path d="M270.008 138.355H235.977V152.746H270.008V138.355Z" fill="#EBEBEB"/>
<path d="M251.106 120.209H217.074V134.6H251.106V120.209Z" fill="#EBEBEB"/>
<path d="M577.591 414.524H543.56V428.915H577.591V414.524Z" fill="#EBEBEB"/>
<path d="M545.486 82.2051H339.653V91.0532H545.486V82.2051Z" fill="#EBEBEB"/>
<path d="M369.584 125.855H361.564L358.352 91.0411H369.584V125.855Z" fill="#EBEBEB"/>
<path d="M515.566 125.855H523.586L526.799 91.0411H515.566V125.855Z" fill="#EBEBEB"/>
<path d="M358.352 91.0538H369.584V103.04H359.457L358.352 91.0538Z" fill="#DBDBDB"/>
<path d="M526.799 91.0538L525.694 103.04H515.566V91.0538H526.799Z" fill="#DBDBDB"/>
<path d="M414.195 29.1426C405.057 41.5273 395.534 55.8927 393.221 71.4154C393.221 71.6469 393.568 71.7241 393.619 71.4926C394.675 67.2586 396.023 63.1032 397.655 59.0564C403.669 57.4102 409.555 56.047 412.717 50.0539C415.878 44.0609 415.518 35.9072 414.902 29.2583C414.812 28.9239 414.375 28.9111 414.195 29.1426Z" fill="#EBEBEB"/>
<path d="M397.747 58.9407C401.778 49.5095 407.197 40.7355 413.825 32.9108C413.825 32.9108 413.928 32.9108 413.825 32.9879C409.645 38.3891 405.975 44.1668 402.862 50.2469C405.882 47.1732 409.198 44.421 412.064 41.1544C412.064 41.1544 412.205 41.1544 412.154 41.2445C409.314 44.6654 406.204 48.3821 402.502 50.9028C401.5 52.7376 400.493 54.5766 399.482 56.42C399.739 56.2785 399.996 56.1628 400.253 56.0342C399.971 56.1756 399.688 56.33 399.392 56.4586C398.917 57.3202 398.441 58.1947 397.94 59.0307C397.94 59.3136 397.67 59.1336 397.747 58.9407Z" fill="#CDCFFC"/>
<path d="M400.801 55.7248C403.255 54.3523 405.597 52.7869 407.805 51.0436C407.869 51.0436 407.959 51.0436 407.895 51.1336C405.751 52.9827 403.406 54.5833 400.903 55.9049C400.788 55.9563 400.672 55.7891 400.801 55.7248Z" fill="#CDCFFC"/>
<path d="M392.218 71.2737C392.218 71.4538 392.552 71.4538 392.552 71.2737C392.552 66.1295 392.552 60.9852 392.629 55.841C393.914 53.2689 396.754 51.7384 398.708 49.6164C400.109 48.0716 401.329 46.3715 402.345 44.5494C404.702 40.1713 406.141 35.3572 406.573 30.4027C407.113 24.9369 405.043 6.89344 402.717 7.52361C401.522 7.84513 397.667 16.7833 396.638 19.7283C394.956 24.6209 393.726 29.6577 392.963 34.7753C391.327 46.8734 391.077 59.1188 392.218 71.2737Z" fill="#EBEBEB"/>
<path d="M392.177 49.217C392.663 42.7108 393.7 36.2575 395.274 29.9261C396.739 23.1614 398.461 16.7954 401.931 10.7637C401.945 10.7399 401.967 10.7224 401.994 10.7151C402.02 10.7079 402.049 10.7115 402.072 10.7251C402.096 10.7388 402.114 10.7614 402.121 10.7879C402.128 10.8144 402.125 10.8427 402.111 10.8666C399.815 15.5584 398.04 20.4877 396.816 25.5663C397.06 25.2062 397.343 24.859 397.574 24.5117C397.677 24.3831 397.896 24.5117 397.806 24.6532C397.487 25.1945 397.122 25.7066 396.713 26.1836C395.518 31.0064 394.657 35.9448 393.924 40.8833L394.079 40.6904C394.079 40.6904 394.181 40.6904 394.156 40.6904L393.873 41.1791C393.5 43.6869 393.153 46.1819 392.806 48.6511C397.37 44.9825 400.944 40.2299 403.203 34.826C401.304 40.5882 397.628 45.5996 392.703 49.1398C392.601 49.8086 392.511 50.4259 392.421 51.1461C392.421 51.2747 392.177 51.249 392.177 51.1461C392.177 50.5545 392.177 49.9629 392.177 49.3842C392.125 49.3713 392.099 49.2813 392.177 49.217Z" fill="#A6A6A6"/>
<path d="M394.25 39.8424C397.724 34.9087 400.76 29.6802 403.323 24.2168C403.323 24.1524 403.452 24.2168 403.439 24.2168C401.404 29.9516 398.357 35.2745 394.443 39.9324C394.366 40.061 394.25 39.9453 394.25 39.8424Z" fill="#A6A6A6"/>
<path d="M398.799 22.9566C400.213 20.4616 401.69 18.031 403.027 15.4846C403.027 15.4203 403.156 15.4846 403.13 15.4846C402.041 18.1408 400.662 20.6682 399.017 23.0209C399.001 23.0378 398.98 23.0499 398.958 23.0559C398.935 23.0619 398.911 23.0615 398.889 23.0549C398.866 23.0483 398.846 23.0356 398.83 23.0183C398.814 23.001 398.803 22.9796 398.799 22.9566Z" fill="#A6A6A6"/>
<path d="M389.709 58.1682C389.645 61.5554 389.249 64.9282 388.527 68.2381L388.681 69.3441C389.721 65.6857 390.325 61.9171 390.481 58.1168C390.51 58.0636 390.525 58.0039 390.525 57.9432C390.525 57.8825 390.51 57.8227 390.481 57.7696C390.631 52.6727 390.252 47.574 389.35 42.5554C387.769 33.1672 384.312 24.1519 377.783 17.1043C377.729 17.0579 377.665 17.0246 377.596 17.0071C377.527 16.9895 377.455 16.9881 377.385 17.0031C377.315 17.018 377.25 17.0488 377.194 17.0932C377.139 17.1375 377.094 17.1941 377.063 17.2586C374.416 23.9847 375.341 31.9969 377.59 38.7101C378.794 42.3399 380.526 45.7721 382.731 48.8957C385.031 52.0466 387.885 54.773 389.709 58.1682Z" fill="#EBEBEB"/>
<path d="M378.557 20.2423C384.764 30.3122 389.082 42.2726 389.609 54.1687C389.609 54.3873 389.262 54.4387 389.236 54.1687C389.082 53.1012 388.928 52.0466 388.748 50.9921C386.049 48.6088 383.681 45.8753 381.705 42.8642C381.705 42.8642 381.705 42.7484 381.795 42.7999C383.925 45.4153 386.208 47.9018 388.632 50.2462C388.183 47.6097 387.656 45.0248 387.039 42.4655L386.538 41.9125C386.435 41.7967 386.615 41.6038 386.73 41.7324L386.872 41.8996C386.004 38.407 384.922 34.9711 383.633 31.6111C381.91 29.8668 380.4 27.9242 379.135 25.8238C379.135 25.8238 379.135 25.7338 379.225 25.8238C380.111 27.1597 381.068 28.4476 382.091 29.682C382.502 30.1579 382.965 30.608 383.376 31.0838C381.931 27.4274 380.212 23.885 378.235 20.4867C378.235 20.2295 378.467 20.0494 378.557 20.2423Z" fill="#CDCFFC"/>
<path d="M379.815 32.6795C381.82 35.3802 384.108 37.9524 385.971 40.7431C385.971 40.8203 385.907 40.9103 385.843 40.846C383.459 38.4159 381.387 35.6986 379.674 32.7567C379.664 32.7379 379.661 32.7159 379.667 32.6954C379.673 32.6748 379.687 32.6576 379.706 32.6474C379.725 32.6371 379.747 32.6348 379.767 32.6408C379.788 32.6468 379.805 32.6607 379.815 32.6795Z" fill="#A6A6A6"/>
<path d="M386.254 41.3733L386.331 41.4504C386.344 41.4624 386.353 41.4792 386.354 41.4973C386.355 41.5154 386.349 41.5332 386.337 41.5469C386.325 41.5605 386.308 41.5689 386.29 41.5701C386.272 41.5713 386.254 41.5652 386.241 41.5533L386.151 41.4633C386.139 41.4496 386.133 41.4318 386.134 41.4137C386.135 41.3956 386.143 41.3788 386.157 41.3668C386.171 41.3549 386.189 41.3489 386.207 41.3501C386.225 41.3513 386.242 41.3596 386.254 41.3733Z" fill="#A6A6A6"/>
<path d="M367.877 37.0648C368.602 42.7144 370.87 48.0544 374.431 52.4976C375.892 54.2342 377.7 55.6449 379.739 56.6387C382.039 57.7833 384.443 59.0951 386.82 60.021C387.953 62.8954 388.793 65.8771 389.326 68.9206L389.558 68.1232C388.041 55.0054 379.546 43.7781 368.687 36.5761C368.604 36.5229 368.508 36.494 368.409 36.4926C368.311 36.4912 368.214 36.5175 368.13 36.5683C368.045 36.6192 367.977 36.6927 367.932 36.7804C367.888 36.8682 367.869 36.9667 367.877 37.0648Z" fill="#EBEBEB"/>
<path d="M371.86 45.4757C372.004 45.5638 372.142 45.6627 372.271 45.7715C372.271 45.7715 372.271 45.8615 372.271 45.8486L371.847 45.6043C371.718 45.5528 371.782 45.4371 371.86 45.4757Z" fill="#A6A6A6"/>
<path d="M402.91 82.2049H380.548L381.653 67.5309L382.077 62.7468H401.188L401.612 67.5309L402.91 82.2049Z" fill="#DBDBDB"/>
<path d="M401.61 67.5309H381.651L382.075 62.7468H401.186L401.61 67.5309Z" fill="#C7C7C7"/>
<path d="M402.704 58.8245H380.548V63.7244H402.704V58.8245Z" fill="#DBDBDB"/>
<path d="M457.246 82.1663V28.9104H443.842V82.1663H457.246Z" fill="#C7C7C7"/>
<path d="M457.246 31.9201V26.0685H443.842V31.9201H457.246Z" fill="#DBDBDB"/>
<path d="M457.246 41.5907V39.4173H443.842V41.5907H457.246Z" fill="#DBDBDB"/>
<path d="M457.246 75.1829V69.3314H443.842V75.1829H457.246Z" fill="#DBDBDB"/>
<path d="M466.602 82.1665V20.0497H457.233V82.1665H466.602Z" fill="#DBDBDB"/>
<path d="M464.702 49.784V25.889H459.086V49.784H464.702Z" fill="#EBEBEB"/>
<path d="M533.297 75.4482L489.152 31.7787L482.566 38.4462L526.711 82.1157L533.297 75.4482Z" fill="#C7C7C7"/>
<path d="M521.64 66.5139L504.658 49.7151L500.71 53.712L517.691 70.5107L521.64 66.5139Z" fill="#DBDBDB"/>
<path d="M482.501 82.1791V34.9935H466.591V82.1791H482.501Z" fill="#CDCFFC"/>
<path d="M482.513 77.1764V72.778H466.602V77.1764H482.513Z" fill="#C7C7C7"/>
<path d="M482.513 69.8978V68.1873H466.602V69.8978H482.513Z" fill="#C7C7C7"/>
<path d="M426.484 82.2227L443.962 41.4742L433.865 37.1372L416.387 77.8856L426.484 82.2227Z" fill="#CDCFFC"/>
<path d="M428.324 77.8862L429.951 74.0927L419.854 69.7556L418.227 73.5492L428.324 77.8862Z" fill="#C7C7C7"/>
<path d="M438.721 53.6637L440.349 49.8701L430.251 45.5331L428.624 49.3267L438.721 53.6637Z" fill="#C7C7C7"/>
<path d="M436.964 57.747L437.598 56.2697L427.5 51.9327L426.867 53.41L436.964 57.747Z" fill="#C7C7C7"/>
<path d="M84.2402 71.4924V9.07977H146.584V71.4924H84.2402ZM87.1833 12.0506V68.5087H143.641V12.012L87.1833 12.0506Z" fill="#C7C7C7"/>
<path d="M139.579 57.5767V38.0414H95.5749V57.5767H139.579Z" fill="#EBEBEB"/>
<path d="M96.8851 147.46H111.626V104.84H96.8851V147.46Z" fill="#C7C7C7"/>
<path d="M93.4414 187.315V205.847H124.427V187.315H93.4414Z" fill="#EBEBEB"/>
<path d="M84.2402 155.253V92.8663H146.584V155.253H84.2402ZM87.1833 95.8114V152.308H143.641V95.8114H87.1833Z" fill="#C7C7C7"/>
<path d="M84.2402 239.041V176.667H146.584V239.041H84.2402ZM87.1833 179.612V236.109H143.641V179.612H87.1833Z" fill="#C7C7C7"/>
<path d="M126.673 51.5322V28.9747H104.131V51.5322H126.673Z" fill="#C7C7C7"/>
<path d="M126.69 135.333V112.776H104.149V135.333H126.69Z" fill="#EBEBEB"/>
<path d="M126.69 219.132V196.575H104.149V219.132H126.69Z" fill="#C7C7C7"/>
<path d="M296.576 565.585C424.613 565.585 528.408 551.588 528.408 534.321C528.408 517.054 424.613 503.057 296.576 503.057C168.539 503.057 64.7441 517.054 64.7441 534.321C64.7441 551.588 168.539 565.585 296.576 565.585Z" fill="#DEE2E6"/>
<path d="M18.2119 484.95L87.8039 484.642L157.396 484.526L296.58 484.307L435.764 484.526L505.356 484.642L574.948 484.95L505.356 485.272L435.764 485.375L296.58 485.593L157.396 485.375L87.8039 485.272L18.2119 484.95Z" fill="#263238"/>
<path d="M86.3648 255.979C86.3648 255.979 118.494 251.478 110.976 212.69C110.976 212.69 75.0939 220.741 86.3648 255.979Z" fill="#6A6FF5"/>
<path opacity="0.1" d="M86.3648 255.979C86.3648 255.979 118.494 251.478 110.976 212.69C110.976 212.69 75.0939 220.741 86.3648 255.979Z" fill="black"/>
<path d="M87.9974 247.89C88.6281 245.925 89.3573 243.994 90.1822 242.103C90.1822 241.858 90.1822 241.601 90.2593 241.369C90.2593 240.829 90.3621 240.302 90.4007 239.762C90.4906 238.604 90.5549 237.447 90.632 236.29C90.7605 233.975 90.9147 231.647 90.9533 229.332C90.9533 229.203 91.1461 229.216 91.1461 229.332C91.1461 231.66 91.1461 233.975 91.1461 236.302C91.1461 237.46 91.0433 238.617 90.9661 239.775C90.9661 240.032 90.9661 240.289 90.9661 240.546C92.768 236.684 94.9189 232.995 97.392 229.525C98.4972 227.982 99.671 226.498 100.913 225.075C102.199 223.609 103.484 222.207 104.769 220.754C104.859 220.664 105 220.754 104.91 220.908C102.601 223.459 100.528 226.214 98.7157 229.139C97.739 230.618 96.8265 232.136 95.9398 233.679L96.2482 233.563C96.6209 233.396 97.0064 233.242 97.392 233.1C98.2531 232.753 99.127 232.431 99.9623 232.097C101.684 231.467 103.407 230.811 105.103 230.181C105.206 230.181 105.27 230.322 105.103 230.361C103.394 231.042 101.71 231.763 99.9623 232.496L97.482 233.563L96.1968 234.078C95.9279 234.212 95.6428 234.311 95.3486 234.373C94.706 235.544 94.0634 236.714 93.4722 237.897C91.9792 240.903 90.6661 243.995 89.5396 247.157L89.3083 247.826C90.1315 247.333 90.9907 246.903 91.8786 246.539L95.2072 245.022C97.4563 243.993 99.6925 242.938 101.852 241.717C101.875 241.703 101.904 241.699 101.93 241.707C101.957 241.714 101.979 241.731 101.993 241.755C102.007 241.779 102.01 241.808 102.003 241.834C101.996 241.861 101.978 241.883 101.954 241.897C99.7439 243.106 97.5848 244.379 95.3743 245.588C94.269 246.179 93.1509 246.771 92.02 247.324C91.0776 247.872 90.0601 248.28 88.9998 248.533C87.9955 251.483 87.3567 254.545 87.0978 257.651C86.7508 262.037 86.7893 266.461 86.6865 270.859H86.5709C86.2496 266.872 86.0696 262.847 86.0439 258.847C86.1054 255.114 86.765 251.414 87.9974 247.89Z" fill="#263238"/>
<path d="M92.9455 225.062C93.2536 227.329 93.3569 229.618 93.2542 231.904H93.1641C93.0355 229.64 93.0098 227.377 92.7526 225.113C92.7397 224.985 92.9198 224.946 92.9455 225.062Z" fill="#263238"/>
<path d="M102.121 227.005C103.558 226.457 104.943 225.781 106.259 224.986C106.362 224.909 106.452 225.089 106.349 225.153C105.06 226.006 103.653 226.664 102.173 227.108C102.095 227.172 102.044 227.108 102.121 227.005Z" fill="#263238"/>
<path d="M85.3484 317.581C85.3484 314.032 85.4383 310.482 85.4769 306.92C85.5411 295.127 85.6439 283.333 85.8496 271.54C86.0124 262.178 86.2308 252.815 86.505 243.453C86.508 243.427 86.518 243.403 86.5338 243.382C86.5497 243.362 86.5708 243.346 86.595 243.337C86.595 240.765 86.595 238.193 86.595 235.62C86.595 235.556 86.6721 235.53 86.7492 235.53C86.8263 235.53 86.9034 235.53 86.9034 235.633V243.35C86.9251 243.361 86.9437 243.377 86.9572 243.397C86.9707 243.418 86.9787 243.441 86.9805 243.465C87.456 260.184 87.8801 276.8 87.9701 293.468C87.9701 296.85 87.9701 300.245 87.9701 303.627C88.0901 314.49 88.1286 325.358 88.0858 336.229C88.0858 337.965 88.0858 339.689 88.0858 341.373C88.0858 351.315 87.983 361.256 87.983 371.197C87.983 371.737 87.3918 371.994 86.6978 372.02C86.0038 372.046 85.207 371.763 85.207 371.146C85.207 360.188 85.1299 349.218 85.1299 338.261C85.3227 331.406 85.297 324.487 85.3484 317.581Z" fill="#263238"/>
<path d="M98.7502 306.843C98.7502 306.843 114.172 295.384 128.862 303.126C143.551 310.868 145.826 340.692 145.826 340.692C145.826 340.692 124.299 343.779 110.741 330.867C97.6707 318.418 98.7502 306.843 98.7502 306.843Z" fill="#6A6FF5"/>
<path d="M94.5472 307.498C97.4011 306.362 100.494 305.959 103.543 306.328C104.167 306.217 104.799 306.157 105.433 306.148L107.617 305.98L112.115 305.659C115.161 305.427 118.22 305.247 121.266 304.939C121.369 304.939 121.394 305.119 121.266 305.132C118.246 305.517 115.251 305.942 112.27 306.251C110.715 306.405 109.172 306.572 107.604 306.675L106.371 306.842C106.833 306.945 107.296 307.048 107.746 307.176C110.172 307.885 112.52 308.841 114.75 310.032C116.035 310.25 117.179 310.585 118.374 310.867C120.276 311.318 122.23 311.806 124.08 312.308C127.833 313.298 131.547 314.404 135.274 315.484C135.294 315.492 135.311 315.505 135.323 315.522C135.335 315.539 135.341 315.56 135.341 315.581C135.341 315.602 135.335 315.622 135.323 315.64C135.311 315.657 135.294 315.67 135.274 315.677C131.56 314.764 127.82 313.928 124.093 313.041C122.281 312.604 120.469 312.179 118.657 311.755L117.243 311.433C121.391 314.008 125.097 317.234 128.219 320.989C131.237 324.68 133.8 328.722 135.853 333.026C135.853 333.142 135.75 333.245 135.685 333.129C133.136 328.697 130.022 324.616 126.419 320.989C126.496 321.195 126.561 321.4 126.625 321.606C126.908 322.519 127.19 323.432 127.486 324.333C128.052 326.159 128.63 327.972 129.182 329.811C129.182 329.927 129.028 329.965 128.99 329.811C128.334 328.049 127.705 326.275 127.101 324.5L126.175 321.928L125.713 320.577C125.713 320.436 125.61 320.294 125.571 320.153C123.848 318.476 122.015 316.917 120.083 315.484C117.539 313.608 114.788 312.029 111.884 310.777L112.038 311.575L112.501 313.684C112.797 315.15 113.079 316.616 113.375 318.082C113.953 321.079 114.313 324.101 114.879 327.085C114.879 327.213 114.711 327.252 114.686 327.085C113.992 324.075 113.092 321.117 112.424 318.082C112.09 316.578 111.756 315.073 111.434 313.555L111.01 311.433C110.933 311.048 110.843 310.649 110.792 310.25C110.509 310.134 110.239 310.006 109.956 309.903C105.895 308.398 101.423 307.331 97.1047 308.141C95.0604 308.523 93.1418 309.403 91.5188 310.704C89.8958 312.006 88.6185 313.687 87.8 315.6C87.6587 315.935 87.1317 315.729 87.2088 315.382C88.0442 311.678 91.1543 308.926 94.5472 307.498Z" fill="#263238"/>
<path d="M118.198 320.231C118.635 322.198 119.072 324.089 119.484 326.108C119.971 327.989 120.331 329.901 120.563 331.831C120.563 331.908 120.46 331.908 120.448 331.831C119.891 329.941 119.461 328.016 119.162 326.069C118.79 324.14 118.404 322.211 118.031 320.269C117.941 320.153 118.173 320.115 118.198 320.231Z" fill="#263238"/>
<path d="M133.132 325.221C135.099 326.211 136.988 327.343 139.07 328.166C139.198 328.166 139.07 328.41 138.98 328.346C136.966 327.428 135.001 326.407 133.094 325.285C133.094 325.285 133.094 325.195 133.132 325.221Z" fill="#263238"/>
<path d="M95.2801 285.751C95.2801 285.751 114.159 286.96 122.95 274.498C131.74 262.036 129.761 244.25 129.761 244.25C129.761 244.25 109.918 246.668 102.053 255.606C94.1877 264.544 95.2801 285.751 95.2801 285.751Z" fill="#6A6FF5"/>
<path d="M86.4269 304.399C87.0695 302.367 87.892 300.374 88.6503 298.393C89.4085 296.413 90.1668 294.535 91.0021 292.735C92.6885 288.924 94.576 285.207 96.6569 281.597C97.9421 279.308 99.42 277.083 100.885 274.884C100.885 274.55 100.988 274.215 101.039 273.868C101.116 273.289 101.206 272.698 101.296 272.119C101.489 270.923 101.695 269.727 101.888 268.531C102.324 265.959 102.864 263.387 103.276 260.724C103.276 260.596 103.494 260.609 103.481 260.724C103.096 263.297 102.839 265.869 102.479 268.441C102.299 269.727 102.132 271.013 101.939 272.299C101.939 272.749 101.798 273.212 101.72 273.662C104.607 269.453 107.726 265.408 111.064 261.547C111.513 261.02 111.989 260.519 112.439 260.004C112.439 259.85 112.567 259.708 112.619 259.567C112.76 259.207 112.901 258.847 113.03 258.487C113.313 257.741 113.583 256.982 113.852 256.236C114.379 254.757 114.855 253.265 115.253 251.735C115.265 251.713 115.283 251.696 115.306 251.687C115.329 251.677 115.354 251.677 115.377 251.684C115.4 251.692 115.42 251.708 115.433 251.729C115.445 251.75 115.45 251.775 115.446 251.799C115.061 253.342 114.662 254.899 114.161 256.429C113.942 257.162 113.698 257.895 113.441 258.628C113.441 258.744 113.351 258.86 113.313 258.988C115.729 256.352 118.235 253.844 120.78 251.272C120.799 251.26 120.822 251.255 120.845 251.257C120.868 251.26 120.89 251.271 120.906 251.287C120.922 251.303 120.933 251.325 120.935 251.348C120.938 251.37 120.933 251.394 120.921 251.413C116.041 256.521 111.567 262.004 107.542 267.811C108.002 267.669 108.47 267.553 108.943 267.463C110.395 267.18 111.86 266.975 113.326 266.782C116.397 266.396 119.469 265.997 122.527 265.496C122.656 265.496 122.707 265.663 122.527 265.689C119.597 266.267 116.706 266.975 113.801 267.592C112.426 267.901 111.051 268.171 109.676 268.441C108.55 268.684 107.443 269.002 106.36 269.392C106.051 269.83 105.73 270.254 105.435 270.679C104.047 272.698 102.723 274.755 101.412 276.839L103.34 276.466C104.805 276.183 106.27 275.913 107.735 275.668C110.614 275.193 113.493 274.691 116.333 274.048C116.461 274.048 116.513 274.215 116.333 274.241C113.441 274.923 110.588 275.707 107.722 276.479C106.334 276.839 104.946 277.173 103.545 277.482L101.451 277.945C101.172 278.013 100.888 278.06 100.602 278.086C97.835 282.562 95.2646 287.14 92.8913 291.821C91.8375 293.879 90.8351 295.95 89.8455 298.033C88.8559 300.117 87.9691 302.38 87.0438 304.553C86.9538 305.055 86.2727 304.875 86.4269 304.399Z" fill="#263238"/>
<path d="M105.741 260.97C106.101 259.169 106.486 257.369 106.884 255.581C106.884 255.452 107.09 255.581 107.077 255.581C106.717 257.356 106.37 259.13 106.049 260.905C105.784 262.688 105.428 264.457 104.982 266.204C105.116 264.444 105.369 262.695 105.741 260.97Z" fill="#263238"/>
<path d="M116.759 260.455C117.633 260.018 118.558 259.657 119.471 259.31L120.91 258.744L121.643 258.449C121.921 258.365 122.189 258.248 122.439 258.101C122.581 257.998 122.671 258.243 122.529 258.268C122.247 258.348 121.975 258.46 121.72 258.603L121 258.924L119.625 259.529C118.719 259.954 117.787 260.323 116.836 260.635C116.814 260.637 116.793 260.632 116.774 260.621C116.755 260.61 116.741 260.593 116.732 260.573C116.723 260.553 116.721 260.531 116.726 260.509C116.731 260.488 116.743 260.469 116.759 260.455Z" fill="#263238"/>
<path d="M75.9533 270.898C75.9533 270.898 64.5281 249.536 47.1398 246.231C29.7514 242.926 19.123 260.828 19.123 260.828C19.123 260.828 31.8334 277.032 47.7566 279.836C63.6799 282.64 75.9533 270.898 75.9533 270.898Z" fill="#6A6FF5"/>
<path d="M35.4983 255.799C40.0275 255.192 44.6209 255.248 49.1339 255.966L48.3628 255.554C47.0776 254.898 45.7925 254.268 44.5073 253.561C41.8556 252.096 39.1318 250.765 36.3465 249.574C36.3317 249.57 36.3179 249.563 36.3062 249.553C36.2945 249.543 36.2851 249.531 36.2788 249.517C36.2724 249.503 36.2693 249.488 36.2696 249.473C36.2699 249.457 36.2736 249.442 36.2804 249.428C36.2873 249.415 36.2971 249.403 36.3092 249.393C36.3212 249.384 36.3353 249.377 36.3502 249.374C36.3652 249.371 36.3807 249.371 36.3956 249.374C36.4105 249.378 36.4245 249.384 36.4364 249.394C39.1481 250.68 41.9627 251.722 44.7001 252.982C46.0624 253.612 47.3989 254.268 48.7355 254.963C49.5837 255.426 50.5347 255.85 51.383 256.39C55.1982 257.164 58.9052 258.399 62.4226 260.068C61.7029 259.284 60.9832 258.486 60.2506 257.702C58.6313 255.927 57.0377 254.062 55.2642 252.442C55.1742 252.365 55.2642 252.223 55.4055 252.313C57.2176 253.96 59.1454 255.49 60.9061 257.213C61.7671 258.049 62.5768 258.911 63.3865 259.785C63.7849 260.235 64.1833 260.686 64.556 261.161C70.529 264.364 75.7165 268.854 79.7438 274.308C83.7711 279.761 86.5375 286.042 87.8432 292.696C87.8432 292.811 87.7019 292.876 87.6633 292.76C85.2149 284.611 80.8319 277.176 74.8887 271.09C68.4958 264.561 60.4444 259.901 51.6014 257.612C46.3541 256.272 40.9269 255.777 35.524 256.146C35.4849 256.139 35.4494 256.119 35.4228 256.089C35.3963 256.059 35.3804 256.022 35.3774 255.982C35.3745 255.942 35.3848 255.903 35.4066 255.87C35.4285 255.837 35.4607 255.812 35.4983 255.799Z" fill="#263238"/>
<path opacity="0.1" d="M19.123 260.827C19.123 260.827 31.8334 277.031 47.7566 279.835C59.9272 281.983 69.9387 275.642 73.9998 272.517L74.8737 271.064C74.8737 271.064 66.6486 264.119 51.0852 260.12C35.5218 256.12 19.123 260.827 19.123 260.827Z" fill="black"/>
<path d="M45.5969 248.186C46.9258 248.976 48.2127 249.835 49.4524 250.759C50.663 251.672 51.786 252.697 52.8067 253.819C52.8254 253.84 52.8353 253.867 52.8341 253.895C52.8329 253.922 52.8207 253.949 52.8003 253.967C52.7798 253.986 52.7527 253.996 52.725 253.995C52.6973 253.993 52.6712 253.981 52.6525 253.961C51.5087 252.958 50.3392 251.955 49.144 251.003C47.9778 250.076 46.7592 249.217 45.4941 248.431C45.3784 248.289 45.4812 248.122 45.5969 248.186Z" fill="#263238"/>
<path d="M36.0512 251.799C36.6938 252.069 37.3363 252.301 38.0046 252.571L39.9324 253.381C40.0738 253.381 40.0095 253.664 39.9324 253.6L37.9275 252.828C37.2849 252.571 36.6424 252.262 35.9998 252.005C35.8841 251.94 35.9355 251.76 36.0512 251.799Z" fill="#263238"/>
<path d="M78.24 297.841C78.24 297.841 75.1813 319.035 59.258 326.443C43.3348 333.85 23.9287 326.443 23.9287 326.443C23.9287 326.443 31.5626 280.543 78.24 297.841Z" fill="#6A6FF5"/>
<path d="M34.9015 312.592C36.3666 312.425 37.8317 312.18 39.2839 311.91L41.4173 311.511L42.5354 311.28C42.9595 310.881 43.3836 310.483 43.8206 310.084C46.8409 307.421 50.1022 305.044 53.5621 302.985C55.4463 301.872 57.3946 300.871 59.3968 299.988H59.1012L53.8577 300.22C50.3621 300.374 46.8664 300.451 43.3836 300.683C43.368 300.689 43.3513 300.69 43.3349 300.688C43.3184 300.686 43.3027 300.68 43.2891 300.671C43.2755 300.661 43.2644 300.649 43.2567 300.634C43.249 300.619 43.245 300.603 43.245 300.586C43.245 300.57 43.249 300.553 43.2567 300.539C43.2644 300.524 43.2755 300.511 43.2891 300.502C43.3027 300.492 43.3184 300.486 43.3349 300.484C43.3513 300.482 43.368 300.484 43.3836 300.49C46.8921 300.246 50.3749 299.86 53.8706 299.564L59.0113 299.101L61.5816 298.882L62.2499 298.805C63.1624 298.471 64.0748 298.149 65.0002 297.853C69.3399 296.367 74.0064 296.113 78.4816 297.12C82.4913 298.136 86.4882 300.773 87.4778 304.991C87.4778 305.133 87.285 305.235 87.2207 305.094C85.7299 301.557 81.8102 299.783 78.2246 299.049C75.8463 298.597 73.4089 298.55 71.0147 298.908C70.8452 299.998 70.5742 301.07 70.2051 302.11C69.7681 303.602 69.3312 305.094 68.9199 306.586C68.0203 309.557 67.0179 312.502 66.144 315.485C66.1366 315.505 66.1235 315.522 66.1063 315.534C66.089 315.546 66.0686 315.552 66.0476 315.552C66.0266 315.552 66.0061 315.546 65.9889 315.534C65.9716 315.522 65.9585 315.505 65.9512 315.485C66.6966 312.515 67.3135 309.505 68.0332 306.483L69.1127 302.097C69.3464 301.09 69.6426 300.098 69.9995 299.127C68.6041 299.375 67.2227 299.697 65.8612 300.091C63.4051 300.823 60.9971 301.708 58.6514 302.74C58.4201 304.258 58.0731 305.75 57.7261 307.242C57.302 309.106 56.8136 310.958 56.2224 312.785C56.2224 312.808 56.213 312.831 56.1961 312.848C56.1792 312.865 56.1563 312.875 56.1325 312.875C56.1086 312.875 56.0857 312.865 56.0689 312.848C56.052 312.831 56.0425 312.808 56.0425 312.785C56.0486 312.669 56.0486 312.553 56.0425 312.437C56.3895 310.701 56.7751 308.978 57.1478 307.293C57.4434 305.904 57.7132 304.502 58.0088 303.101C56.0297 304.001 54.0891 304.965 52.2127 306.046C52.2127 306.483 52.0585 306.92 52.0071 307.332C51.8914 308.052 51.7501 308.772 51.6215 309.505C51.3259 311.138 50.9918 312.772 50.6062 314.379C49.9054 317.491 49.017 320.558 47.9459 323.562C47.9595 323.578 47.967 323.599 47.967 323.62C47.967 323.641 47.9595 323.661 47.9459 323.678L47.856 323.78C47.7789 323.871 47.6761 323.78 47.6889 323.69C48.4215 320.54 49.2697 317.427 49.9637 314.276C50.2978 312.707 50.6448 311.138 50.9661 309.557C51.1203 308.772 51.2617 307.975 51.4159 307.177C51.4159 306.959 51.493 306.714 51.5316 306.47C49.386 307.732 47.3136 309.115 45.3242 310.611C41.8939 313.191 38.7179 316.094 35.8396 319.279C35.724 319.408 35.4926 319.279 35.6083 319.086C36.8138 317.478 38.1006 315.933 39.4638 314.457C40.2606 313.595 41.096 312.772 41.9442 311.962H41.6743L39.4381 312.309C37.9602 312.502 36.4822 312.643 35.0043 312.81C34.8244 312.798 34.773 312.605 34.9015 312.592Z" fill="#263238"/>
<path d="M46.088 319.781C46.088 319.601 46.088 319.408 46.178 319.228C46.2559 319.001 46.3203 318.769 46.3709 318.534C46.6924 317.119 46.9754 315.692 47.2326 314.251C47.2326 314.161 47.3998 314.187 47.3998 314.251C47.3027 316.152 46.8943 318.025 46.1909 319.794C46.1909 319.794 46.0623 319.794 46.0751 319.794L46.088 319.781Z" fill="#263238"/>
<path d="M59.4102 319.447C59.4133 319.422 59.4255 319.399 59.4445 319.382C59.4634 319.366 59.4878 319.357 59.513 319.357C59.9499 317.479 60.3869 315.601 60.7981 313.711C61.0038 312.721 61.2094 311.718 61.4022 310.727C61.505 310.187 61.5949 309.66 61.6978 309.12C61.7359 308.646 61.8487 308.182 62.0319 307.744C62.0408 307.728 62.0538 307.714 62.0697 307.705C62.0855 307.696 62.1035 307.691 62.1219 307.691C62.1402 307.691 62.1583 307.696 62.1741 307.705C62.1899 307.714 62.2029 307.728 62.2118 307.744C62.2318 308.706 62.0973 309.666 61.8134 310.586C61.6207 311.615 61.415 312.656 61.1965 313.685C60.7339 315.769 60.207 317.852 59.6158 319.91C59.6158 319.937 59.6049 319.963 59.5857 319.983C59.5664 320.002 59.5402 320.013 59.513 320.013C59.4857 320.013 59.4595 320.002 59.4403 319.983C59.421 319.963 59.4102 319.937 59.4102 319.91V319.447Z" fill="#263238"/>
<path d="M36.3556 306.496C39.2601 306.097 42.1646 305.673 45.0819 305.326C45.1976 305.326 45.249 305.493 45.0819 305.506C42.1903 305.943 39.273 306.303 36.3556 306.689C36.2785 306.702 36.2271 306.509 36.3556 306.496Z" fill="#263238"/>
<path d="M86.3926 248.083C86.3926 248.083 96.0956 205.321 50.2151 188.011C50.2151 188.011 37.4919 244.302 86.3926 248.083Z" fill="#6A6FF5"/>
<path d="M76.4791 223.827C76.3121 223.724 76.145 223.609 75.9908 223.532C75.1169 223.056 74.2558 222.567 73.4204 222.078L68.087 219.095C64.5913 217.14 61.1214 215.095 57.6 213.179C57.4843 213.179 57.6 212.947 57.7028 213.011C61.237 214.928 64.8355 216.728 68.3954 218.619L73.6518 221.397L75.798 222.528C74.2687 219.622 72.6365 216.78 70.8372 214.028C68.434 210.375 65.8122 206.877 63.1262 203.469C63.0973 203.44 63.081 203.401 63.081 203.36C63.081 203.319 63.0973 203.279 63.1262 203.25C63.1552 203.221 63.1945 203.205 63.2355 203.205C63.2764 203.205 63.3157 203.221 63.3447 203.25C67.3761 207.166 70.9386 211.538 73.9602 216.278C73.9602 216.124 73.9602 215.969 73.9602 215.828C73.9602 214.761 73.8831 213.706 73.8702 212.639C73.8702 210.555 73.8702 208.459 73.8702 206.375C73.8702 206.247 74.063 206.247 74.0759 206.375C74.153 208.433 74.41 210.478 74.5257 212.536C74.5257 213.565 74.6285 214.581 74.6542 215.609C74.6542 216.162 74.6542 216.793 74.6542 217.397C75.5924 218.915 76.5048 220.432 77.3659 221.988C78.9098 224.773 80.279 227.65 81.4656 230.605C81.4656 229.537 81.5813 228.47 81.6455 227.403C81.774 225.062 82.0696 222.734 82.1596 220.394C82.1596 220.265 82.3652 220.265 82.3652 220.394C82.3652 222.734 82.3652 225.075 82.3652 227.428C82.3652 228.599 82.2881 229.769 82.211 230.926L82.1339 232.212C83.5941 236.034 84.7543 239.965 85.6038 243.967C86.3895 248.222 86.9599 252.515 87.3131 256.828C86.8286 252.928 86.0117 249.077 84.8713 245.317C84.3058 243.303 83.7018 241.296 83.0592 239.299C81.1443 238.398 79.3194 237.267 77.4687 236.251C75.6181 235.235 73.6132 234.142 71.7112 233.087C67.8557 230.991 64.0001 228.843 60.1446 226.991C60.029 226.991 60.1446 226.772 60.2474 226.824C64.2443 228.637 68.2798 230.361 72.2124 232.341C74.1658 233.318 76.0679 234.373 78.0085 235.453C79.6021 236.354 81.2343 237.254 82.7636 238.283C82.3138 236.997 81.8512 235.633 81.3371 234.322C79.8961 230.744 78.2747 227.241 76.4791 223.827Z" fill="#263238"/>
<path d="M80.3466 214.053C80.3466 213.925 80.5524 213.925 80.5524 214.053C80.3852 216.497 80.2952 218.94 80.038 221.371C80.0301 221.394 80.0153 221.413 79.9957 221.427C79.9761 221.441 79.9527 221.449 79.9287 221.449C79.9046 221.449 79.8812 221.441 79.8616 221.427C79.842 221.413 79.8272 221.394 79.8193 221.371C79.9094 218.915 80.1666 216.484 80.3466 214.053Z" fill="#263238"/>
<path d="M58.3356 222.221C61.2144 223.378 64.106 224.472 66.9719 225.68C67.049 225.68 66.9719 225.835 66.9719 225.809C64.0675 224.716 61.2015 223.533 58.3227 222.414C58.1685 222.362 58.2199 222.169 58.3356 222.221Z" fill="#263238"/>
<path d="M53.9763 202.491C56.7824 203.787 59.5077 205.252 62.1371 206.877C62.1644 206.894 62.1838 206.921 62.191 206.952C62.1982 206.984 62.1927 207.017 62.1757 207.044C62.1586 207.071 62.1315 207.091 62.1001 207.098C62.0688 207.105 62.0359 207.1 62.0086 207.082C59.3483 205.526 56.6366 204.035 53.8606 202.658C53.7578 202.671 53.8606 202.44 53.9763 202.491Z" fill="#263238"/>
<path d="M54.6736 410.436H120.898L120.898 340.577H54.6736L54.6736 410.436Z" fill="#37474F"/>
<path d="M125.455 365.295H122.062V484.95H125.455V365.295Z" fill="#263238"/>
<path d="M53.8626 365.295H50.4697V484.95H53.8626V365.295Z" fill="#263238"/>
<path d="M87.8548 365.295H84.4619V484.95H87.8548V365.295Z" fill="#263238"/>
<path d="M52.1659 415.63H123.763V405.959H52.1659V415.63Z" fill="#263238"/>
<path d="M160.802 266.937H95.9395V437.25H160.802V266.937Z" fill="#8387F7"/>
<path opacity="0.2" d="M160.802 266.937H95.9395V437.25H160.802V266.937Z" fill="black"/>
<path d="M497.23 266.937H432.367V437.25H497.23V266.937Z" fill="#8387F7"/>
<path opacity="0.2" d="M497.23 266.937H432.367V437.25H497.23V266.937Z" fill="black"/>
<path d="M432.381 147.05H160.786V437.25H432.381V147.05Z" fill="#8387F7"/>
<path opacity="0.2" d="M432.381 147.05H160.786V437.25H432.381V147.05Z" fill="black"/>
<g opacity="0.2">
<path d="M433.948 266.937H432.406V437.237H433.948V266.937Z" fill="black"/>
<path d="M161.558 266.937H160.016V437.237H161.558V266.937Z" fill="black"/>
<path d="M433.975 387.866H160.016V334.996H433.975V387.866ZM161.635 386.233H432.382V336.578H161.635V386.233Z" fill="black"/>
</g>
<g opacity="0.2">
<path d="M177.701 240.173C177.437 240.202 177.192 240.327 177.015 240.525C176.837 240.724 176.739 240.98 176.739 241.246C176.739 241.513 176.837 241.769 177.015 241.968C177.192 242.166 177.437 242.291 177.701 242.32C177.966 242.291 178.21 242.166 178.387 241.968C178.565 241.769 178.663 241.513 178.663 241.246C178.663 240.98 178.565 240.724 178.387 240.525C178.21 240.327 177.966 240.202 177.701 240.173Z" fill="black"/>
<path d="M179.543 371.673C179.279 371.702 179.034 371.827 178.857 372.026C178.679 372.224 178.581 372.48 178.581 372.747C178.581 373.013 178.679 373.27 178.857 373.468C179.034 373.666 179.279 373.791 179.543 373.82C179.807 373.791 180.052 373.666 180.229 373.468C180.407 373.27 180.505 373.013 180.505 372.747C180.505 372.48 180.407 372.224 180.229 372.026C180.052 371.827 179.807 371.702 179.543 371.673Z" fill="black"/>
<path d="M252.954 351.135C252.954 351.019 252.838 350.916 252.787 350.813C252.743 350.742 252.682 350.682 252.608 350.641C252.535 350.6 252.453 350.578 252.369 350.578C252.285 350.578 252.202 350.6 252.129 350.641C252.055 350.682 251.994 350.742 251.951 350.813C251.887 350.916 251.831 351.024 251.783 351.135C251.166 352.408 253.558 352.408 252.954 351.135Z" fill="black"/>
<path d="M145.73 374.374C145.73 374.271 145.627 374.155 145.563 374.052C145.519 373.98 145.458 373.921 145.385 373.88C145.312 373.838 145.229 373.817 145.145 373.817C145.061 373.817 144.978 373.838 144.905 373.88C144.832 373.921 144.77 373.98 144.727 374.052C144.663 374.155 144.611 374.271 144.56 374.374C143.955 375.647 146.347 375.647 145.73 374.374Z" fill="black"/>
<path d="M186.944 246.731C186.725 246.731 186.516 246.818 186.362 246.972C186.208 247.127 186.121 247.336 186.121 247.554C186.121 247.773 186.208 247.982 186.362 248.136C186.516 248.291 186.725 248.378 186.944 248.378C187.162 248.378 187.371 248.291 187.525 248.136C187.679 247.982 187.766 247.773 187.766 247.554C187.766 247.336 187.679 247.127 187.525 246.972C187.371 246.818 187.162 246.731 186.944 246.731Z" fill="black"/>
<path d="M129.767 330.081C129.568 330.106 129.385 330.203 129.253 330.353C129.12 330.504 129.047 330.697 129.047 330.898C129.047 331.098 129.12 331.292 129.253 331.442C129.385 331.593 129.568 331.69 129.767 331.715C129.966 331.69 130.149 331.593 130.282 331.442C130.414 331.292 130.488 331.098 130.488 330.898C130.488 330.697 130.414 330.504 130.282 330.353C130.149 330.203 129.966 330.106 129.767 330.081Z" fill="black"/>
<path d="M237.461 200.922C237.247 200.711 236.959 200.592 236.658 200.592C236.357 200.592 236.069 200.711 235.855 200.922C235.66 201.125 235.522 201.376 235.454 201.649C235.387 201.922 235.392 202.208 235.469 202.478C235.564 202.718 235.729 202.924 235.942 203.069C236.155 203.214 236.407 203.292 236.665 203.292C236.922 203.292 237.174 203.214 237.387 203.069C237.6 202.924 237.765 202.718 237.86 202.478C237.937 202.207 237.941 201.92 237.871 201.646C237.801 201.373 237.659 201.123 237.461 200.922Z" fill="black"/>
<path d="M188.538 365.589C188.324 365.378 188.035 365.259 187.735 365.259C187.434 365.259 187.145 365.378 186.931 365.589C186.737 365.789 186.598 366.038 186.531 366.309C186.463 366.58 186.468 366.864 186.546 367.132C186.643 367.368 186.807 367.57 187.019 367.712C187.231 367.854 187.48 367.93 187.735 367.93C187.989 367.93 188.238 367.854 188.45 367.712C188.662 367.57 188.827 367.368 188.923 367.132C189.004 366.864 189.01 366.579 188.943 366.308C188.875 366.036 188.735 365.788 188.538 365.589Z" fill="black"/>
<path d="M414.191 376.675C414.477 376.675 414.752 376.561 414.954 376.359C415.157 376.156 415.27 375.881 415.27 375.595C415.27 375.308 415.157 375.034 414.954 374.831C414.752 374.628 414.477 374.515 414.191 374.515C413.905 374.515 413.63 374.628 413.427 374.831C413.225 375.034 413.111 375.308 413.111 375.595C413.111 375.881 413.225 376.156 413.427 376.359C413.63 376.561 413.905 376.675 414.191 376.675Z" fill="black"/>
<path d="M348.979 233.202C349.243 233.173 349.487 233.047 349.665 232.849C349.842 232.651 349.94 232.394 349.94 232.128C349.94 231.862 349.842 231.605 349.665 231.407C349.487 231.209 349.243 231.083 348.979 231.054C348.714 231.083 348.47 231.209 348.292 231.407C348.115 231.605 348.017 231.862 348.017 232.128C348.017 232.394 348.115 232.651 348.292 232.849C348.47 233.047 348.714 233.173 348.979 233.202Z" fill="black"/>
<path d="M448.977 366.529C448.977 366.632 449.08 366.748 449.145 366.85C449.188 366.922 449.249 366.982 449.323 367.023C449.396 367.064 449.479 367.086 449.563 367.086C449.647 367.086 449.729 367.064 449.802 367.023C449.876 366.982 449.937 366.922 449.98 366.85C450.045 366.748 450.096 366.632 450.148 366.529C450.804 365.256 448.373 365.256 448.977 366.529Z" fill="black"/>
<path d="M316.209 301.775C316.423 301.986 316.711 302.104 317.012 302.104C317.313 302.104 317.601 301.986 317.815 301.775C318.012 301.573 318.152 301.323 318.22 301.049C318.287 300.776 318.281 300.489 318.201 300.219C318.104 299.983 317.939 299.781 317.728 299.639C317.516 299.497 317.267 299.421 317.012 299.421C316.757 299.421 316.508 299.497 316.296 299.639C316.085 299.781 315.92 299.983 315.823 300.219C315.747 300.489 315.743 300.775 315.81 301.048C315.878 301.321 316.015 301.571 316.209 301.775Z" fill="black"/>
</g>
<g opacity="0.2">
<path d="M161.638 387.865C161.638 387.865 230.034 401.215 296.966 401.215C363.898 401.215 432.372 387.865 432.372 387.865H161.638Z" fill="black"/>
</g>
<path d="M497.221 422.267H95.9395V437.237H497.221V422.267Z" fill="#37474F"/>
<path d="M182.818 437.25L166.329 471.035L149.764 505H135.331L140.69 471.035L146.024 437.25H182.818Z" fill="#37474F"/>
<path d="M146.025 437.25H182.832L172.82 457.737H142.799L146.025 437.25Z" fill="#263238"/>
<path d="M451.648 505H437.229L420.663 471.035L404.161 437.25H440.968L446.289 471.035L451.648 505Z" fill="#37474F"/>
<path d="M444.194 457.737H414.173L404.161 437.25H440.956L444.194 457.737Z" fill="#263238"/>
<path d="M455.037 364.24C453.855 360.678 390.843 277.354 386.538 275.759C386.049 275.541 357.878 295.603 357.878 295.603C356.722 297.159 303.181 285.829 303.181 285.829L302.642 350.467L400.173 348.396C400.173 348.396 413.346 356.112 425.401 362.453C432.816 366.311 439.384 369.655 441.26 370.169C446.169 371.404 456.232 367.777 455.037 364.24Z" fill="#AD6359"/>
<path d="M441.298 370.156C439.409 369.668 432.855 366.375 425.452 362.44C413.41 356.125 400.237 348.357 400.237 348.357L378.53 348.833L344.486 293.983C351.953 295.269 357.518 296.092 357.891 295.603C357.891 295.603 386.036 275.541 386.537 275.759C390.842 277.354 453.854 360.639 455.037 364.227C456.219 367.816 446.169 371.417 441.298 370.156Z" fill="white"/>
<path d="M455.606 364.342C454.321 360.69 391.078 277.43 386.657 275.784C384.986 275.141 371.235 283.667 357.882 295.602L398.763 349.282C398.763 349.282 436.47 369.28 441.508 370.566C446.546 371.853 456.853 367.994 455.606 364.342Z" fill="#474AA3"/>
<path d="M451.376 365.681C440.427 351.984 397.54 295.706 387.747 281.341C387.67 281.212 387.747 281.161 387.837 281.263C398.993 294.613 441.416 351.238 451.608 365.513C451.813 365.809 451.608 366.002 451.376 365.681Z" fill="#263238"/>
<path d="M434.437 367.442C433.219 365.92 432.329 364.162 431.823 362.278C431.316 360.395 431.204 358.427 431.494 356.498C431.996 353.023 433.813 349.873 436.571 347.701C436.661 347.701 436.776 347.791 436.699 347.869C434.3 350.445 432.801 353.73 432.425 357.231C432.05 360.733 432.819 364.261 434.617 367.288C434.638 367.312 434.648 367.343 434.645 367.374C434.643 367.406 434.628 367.435 434.604 367.455C434.58 367.476 434.549 367.486 434.518 367.484C434.487 367.481 434.458 367.466 434.437 367.442Z" fill="#263238"/>
<path d="M403.48 352.549C399.162 347.019 396.206 339.045 398.133 332.101C398.211 331.831 398.583 331.933 398.635 332.165C399.785 339.001 401.667 345.693 404.251 352.125C404.281 352.223 404.276 352.329 404.237 352.425C404.198 352.52 404.127 352.6 404.037 352.649C403.947 352.699 403.842 352.716 403.741 352.698C403.639 352.68 403.547 352.627 403.48 352.549Z" fill="#263238"/>
<path d="M408.384 355.585C404.066 350.055 401.11 342.081 403.038 335.136C403.115 334.866 403.488 334.969 403.526 335.201C404.688 342.034 406.57 348.725 409.142 355.16C409.184 355.26 409.188 355.371 409.154 355.473C409.119 355.575 409.047 355.66 408.953 355.713C408.859 355.766 408.749 355.782 408.644 355.758C408.539 355.734 408.446 355.673 408.384 355.585Z" fill="#263238"/>
<path d="M413.399 358.62C409.08 353.09 406.125 345.116 408.052 338.172C408.117 337.902 408.502 338.005 408.541 338.236C409.702 345.069 411.585 351.76 414.157 358.196C414.199 358.295 414.203 358.406 414.168 358.508C414.133 358.61 414.062 358.696 413.968 358.748C413.874 358.801 413.764 358.817 413.659 358.793C413.554 358.77 413.461 358.708 413.399 358.62Z" fill="#263238"/>
<path d="M418.36 361.655C414.029 356.125 411.086 348.151 413.014 341.194C413.014 340.936 413.464 341.039 413.502 341.271C414.658 348.105 416.54 354.797 419.118 361.231C419.16 361.33 419.164 361.441 419.13 361.543C419.095 361.645 419.023 361.731 418.929 361.783C418.835 361.836 418.725 361.852 418.62 361.828C418.515 361.804 418.422 361.743 418.36 361.655Z" fill="#263238"/>
<path d="M377.212 294.973C372.456 288.697 382.211 281.302 386.966 287.591C391.721 293.88 381.967 301.262 377.212 294.973Z" fill="#263238"/>
<path d="M401.026 363.25C402.619 357.283 401.565 350.827 401.296 344.756C401.277 344.623 401.229 344.496 401.153 344.386C401.077 344.275 400.976 344.184 400.859 344.119C400.742 344.054 400.611 344.017 400.477 344.012C400.343 344.006 400.21 344.032 400.087 344.088C400.069 344.066 400.047 344.049 400.021 344.037C399.996 344.025 399.968 344.019 399.94 344.019C399.911 344.019 399.884 344.025 399.858 344.037C399.833 344.049 399.81 344.066 399.792 344.088C394.982 348.398 391.388 353.897 389.369 360.035C388.264 363.636 388.688 368.934 393.225 369.976C397.427 370.915 400.087 366.735 401.026 363.25ZM396.592 367.031C390.102 371.095 390.59 362.067 391.515 359.443C392.144 357.763 392.882 356.126 393.726 354.543C395.528 351.295 397.492 348.14 399.612 345.091C399.612 348.087 399.766 351.058 399.83 354.093C399.908 357.604 400.177 364.793 396.592 367.031Z" fill="#263238"/>
<path d="M381.144 326.905C377.841 330.12 380.218 334.879 383.007 337.4C387.897 341.618 393.809 344.474 400.151 345.682C400.179 345.688 400.208 345.688 400.235 345.681C400.263 345.673 400.288 345.66 400.31 345.641C400.331 345.622 400.348 345.599 400.358 345.572C400.368 345.546 400.373 345.517 400.37 345.489C400.504 345.476 400.634 345.431 400.748 345.358C400.862 345.285 400.957 345.187 401.026 345.07C401.095 344.954 401.135 344.823 401.144 344.688C401.153 344.553 401.13 344.417 401.077 344.293C398.185 338.956 395.756 332.873 391.309 328.577C388.713 326.134 384.279 323.87 381.144 326.905ZM395.036 337.091C396.527 339.663 397.877 342.338 399.457 344.872C396.069 343.355 392.762 341.664 389.549 339.805C388.003 338.893 386.525 337.87 385.128 336.744C382.981 334.982 377.905 327.497 385.565 327.625C389.793 327.703 393.263 334.004 395.036 337.091Z" fill="#263238"/>
<path d="M300.227 266.01H256.454C256.454 266.01 210.663 243.992 173.779 252.827C131.497 263 126.086 316.14 157.688 334.93C197.734 358.748 375.936 354.131 375.936 354.131L337.381 288.799C337.381 288.799 278.122 276.311 224.389 278.124L300.214 288.413L300.227 266.01Z" fill="#263238"/>
<path d="M339.973 293.056C339.929 292.949 339.903 292.836 339.896 292.721L339.819 292.439C339.819 292.233 339.716 292.027 339.652 291.808C339.527 291.371 339.377 290.942 339.202 290.522C339.048 290.098 338.855 289.686 338.662 289.236C338.452 288.833 338.211 288.446 337.943 288.079C337.943 288.079 337.878 288.079 337.84 288.079C337.819 288.073 337.797 288.073 337.775 288.079C337.775 288.079 337.711 288.079 337.673 288.079C337.643 288.072 337.612 288.072 337.583 288.079C331.067 286.793 286.78 280.517 280.2 279.771C273.62 279.025 266.898 278.395 260.241 277.842C246.955 276.687 233.62 276.206 220.285 276.401C219 276.401 217.792 276.466 216.545 276.517C216.275 276.427 215.993 276.376 215.723 276.311C215.08 276.157 214.438 276.003 213.795 275.874C212.6 275.643 211.379 275.463 210.171 275.282C207.601 274.897 205.12 274.627 202.614 274.164C202.583 274.164 202.554 274.176 202.532 274.197C202.511 274.219 202.498 274.249 202.498 274.279C202.498 274.31 202.511 274.339 202.532 274.361C202.554 274.383 202.583 274.395 202.614 274.395C205.184 274.948 207.626 275.681 210.145 276.234C210.878 276.388 211.597 276.556 212.33 276.697C207.446 276.954 202.563 277.327 197.692 277.777C197.666 277.786 197.644 277.802 197.628 277.824C197.612 277.846 197.604 277.872 197.604 277.9C197.604 277.927 197.612 277.953 197.628 277.975C197.644 277.997 197.666 278.013 197.692 278.022C204.323 277.623 211.006 277.572 217.663 277.687C224.321 277.803 230.849 277.945 237.442 278.33C250.782 279.089 264.097 280.285 277.385 281.674C284.839 282.459 329.987 289.056 337.467 289.391H337.557C337.621 289.558 337.685 289.738 337.763 289.905C337.968 290.304 338.174 290.715 338.405 291.101C338.608 291.49 338.831 291.868 339.074 292.233C339.189 292.413 339.305 292.593 339.433 292.773L339.626 293.043C339.702 293.129 339.767 293.224 339.819 293.326C339.806 293.313 340.063 293.21 339.973 293.056Z" fill="#455A64"/>
<path d="M362.042 350.195C359.651 346.337 357.621 342.311 355.436 338.376C353.251 334.441 351.053 330.48 348.856 326.531C344.473 318.661 328.743 292.194 327.188 290.342C327.085 290.226 326.892 290.342 326.931 290.496C327.676 292.541 337.495 310.07 339.783 313.967C344.306 321.786 349.049 329.399 353.739 337.116C355.025 339.315 356.451 341.488 357.813 343.688C359.176 345.887 360.615 348.022 361.849 350.272C361.9 350.465 362.119 350.337 362.042 350.195Z" fill="#455A64"/>
<path d="M326.739 296.927C322.807 295.976 318.784 295.371 314.813 294.612C310.842 293.854 306.845 293.108 302.861 292.375C294.893 290.891 286.908 289.472 278.905 288.118C262.969 285.443 246.956 283.205 230.853 281.687C221.767 280.813 212.668 280.247 203.556 279.578C203.363 279.578 203.376 279.861 203.556 279.874C219.762 280.607 235.955 282.806 252.007 285.108C268.059 287.41 283.776 289.905 299.558 292.58C304.03 293.335 308.503 294.102 312.975 294.882C317.512 295.667 322.049 296.631 326.611 297.21C326.842 297.21 326.919 296.966 326.739 296.927Z" fill="#455A64"/>
<path d="M372.026 576.838C368.171 576.453 272.734 533.524 270.125 529.576C269.123 528.097 274.559 513.808 281.692 496.742C283.208 493.064 284.815 489.27 286.46 485.425C297.088 460.437 308.963 434.175 308.963 434.175L372.9 462.713L348.636 513.165L343.316 524.251C343.316 524.251 372.515 557.046 374.918 561.676C377.321 566.305 375.869 577.224 372.026 576.838Z" fill="#AD6359"/>
<path d="M372.032 576.839C368.176 576.453 272.739 533.524 270.13 529.576C268.922 527.762 277.199 507.057 286.401 485.425L348.577 513.166L343.257 524.251C343.257 524.251 372.456 557.046 374.859 561.676C377.262 566.306 375.874 577.224 372.032 576.839Z" fill="white"/>
<path d="M372.026 576.838C368.171 576.452 272.734 533.524 270.125 529.575C269.123 528.096 274.559 513.808 281.692 496.742L343.316 524.251C343.316 524.251 372.515 557.046 374.918 561.675C377.321 566.305 375.869 577.224 372.026 576.838Z" fill="#474AA3"/>
<path d="M372.4 572.401C356.58 564.814 292.025 535.684 275.807 529.396C275.678 529.396 275.64 529.396 275.807 529.486C291.331 537.356 356.104 565.958 372.323 572.672C372.606 572.8 372.708 572.569 372.4 572.401Z" fill="#263238"/>
<path d="M370.256 555.477C368.496 554.633 366.58 554.163 364.629 554.097C362.678 554.031 360.735 554.369 358.921 555.092C355.653 556.365 352.998 558.847 351.506 562.023C351.506 562.126 351.647 562.203 351.699 562.113C353.669 559.188 356.533 556.981 359.863 555.821C363.192 554.662 366.807 554.614 370.167 555.683C370.192 555.687 370.218 555.683 370.241 555.671C370.264 555.659 370.281 555.639 370.292 555.615C370.302 555.592 370.304 555.565 370.298 555.54C370.292 555.515 370.277 555.493 370.256 555.477Z" fill="#263238"/>
<path d="M348.741 528.637C342.379 525.666 333.935 524.586 327.6 528.045C327.355 528.174 327.6 528.521 327.792 528.508C334.708 528.09 341.649 528.413 348.496 529.473C348.603 529.494 348.714 529.474 348.808 529.417C348.901 529.36 348.969 529.271 349 529.166C349.03 529.061 349.021 528.949 348.973 528.851C348.925 528.753 348.842 528.677 348.741 528.637Z" fill="#263238"/>
<path d="M352.83 532.792C346.404 529.821 338.025 528.741 331.689 532.2C331.445 532.329 331.689 532.676 331.869 532.663C338.789 532.245 345.734 532.568 352.586 533.628C352.693 533.649 352.804 533.629 352.897 533.572C352.99 533.516 353.059 533.426 353.089 533.321C353.12 533.217 353.11 533.104 353.062 533.006C353.014 532.908 352.931 532.832 352.83 532.792Z" fill="#263238"/>
<path d="M356.901 536.945C350.54 533.974 342.096 532.894 335.76 536.34C335.516 536.482 335.76 536.829 335.94 536.816C342.86 536.398 349.805 536.721 356.657 537.781C356.764 537.802 356.875 537.782 356.968 537.725C357.061 537.668 357.13 537.579 357.16 537.474C357.191 537.37 357.181 537.257 357.133 537.159C357.085 537.061 357.003 536.985 356.901 536.945Z" fill="#263238"/>
<path d="M360.977 541.099C354.615 538.129 346.172 537.048 339.836 540.495C339.592 540.636 339.836 540.984 340.029 540.971C346.945 540.553 353.886 540.876 360.733 541.935C360.84 541.956 360.951 541.937 361.044 541.88C361.137 541.823 361.206 541.734 361.236 541.629C361.267 541.524 361.257 541.412 361.209 541.314C361.161 541.216 361.078 541.139 360.977 541.099Z" fill="#263238"/>
<path d="M286.692 516.021C279.495 512.806 274.495 523.995 281.705 527.21C288.915 530.425 293.901 519.236 286.692 516.021Z" fill="#263238"/>
<path d="M363.405 514.645C361.361 510.504 356.105 511.288 352.854 513.192C347.327 516.541 342.779 521.287 339.668 526.952C339.653 526.978 339.644 527.007 339.642 527.036C339.64 527.066 339.645 527.095 339.656 527.122C339.667 527.15 339.684 527.174 339.706 527.194C339.729 527.213 339.755 527.228 339.783 527.235C339.719 527.75 340.079 528.38 340.709 528.264C346.685 527.158 353.213 526.721 358.701 523.814C361.811 522.117 365.268 518.567 363.405 514.645ZM349.422 524.74C346.492 525.345 343.562 525.821 340.657 526.541C343.147 523.784 345.776 521.157 348.535 518.67C349.885 517.48 351.315 516.385 352.815 515.391C355.154 513.899 363.842 511.378 361.348 518.632C359.922 522.644 352.866 524.007 349.371 524.74H349.422Z" fill="#263238"/>
<path d="M322.641 522.18C327.782 525.537 334.297 526.54 340.158 528.148C340.762 528.315 341.186 527.723 341.16 527.196C341.189 527.193 341.216 527.183 341.24 527.167C341.264 527.151 341.283 527.129 341.297 527.104C341.311 527.079 341.319 527.051 341.319 527.022C341.32 526.993 341.314 526.965 341.302 526.939C338.687 521.025 334.565 515.903 329.349 512.085C326.265 509.924 321.086 508.677 318.708 512.638C316.459 516.38 319.608 520.213 322.641 522.18ZM320.405 516.792C318.541 509.346 326.985 512.612 329.195 514.297C330.605 515.413 331.936 516.625 333.179 517.924C335.715 520.636 338.108 523.478 340.35 526.437C337.523 525.473 334.631 524.753 331.766 523.865C328.36 522.901 321.433 520.894 320.405 516.792Z" fill="#263238"/>
<path d="M287.854 479.561L359.824 512.099C359.824 512.099 445.429 347.688 447.665 297.326C449.567 254.5 419.777 237.974 323.454 265.676L299.858 265.972V282.266C310.216 283.629 337.848 287.976 337.848 287.976C357.948 295.564 364.425 298.702 364.104 299.358C313.905 400.725 287.854 479.561 287.854 479.561Z" fill="#263238"/>
<path d="M375.823 281.328C372.919 285.186 370.233 289.224 367.662 293.339C352.24 286.459 335.392 282.485 318.659 280.414C313.93 279.84 309.179 279.411 304.406 279.128C304.214 279.128 304.226 279.424 304.406 279.437C321.339 280.623 338.073 283.809 354.258 288.928C358.743 290.317 363.126 291.912 367.547 293.494C364.462 298.432 361.545 303.499 358.756 308.592C353.542 318.121 348.848 327.927 344.696 337.966C342.383 343.522 340.134 349.116 338.142 354.8C338.142 354.968 338.361 355.07 338.425 354.916C347.215 335.308 356.807 316.12 367.2 297.352C370.13 292.053 373.189 286.832 376.055 281.495C376.157 281.353 375.926 281.122 375.823 281.328Z" fill="#455A64"/>
<path d="M361.339 494.698C357.137 493.065 353.076 491.02 348.976 489.168L336.625 483.625C328.4 479.947 299.972 468.193 297.621 467.601C297.466 467.601 297.389 467.794 297.505 467.871C299.33 469.067 317.669 477.234 321.82 479.008C330.123 482.571 338.528 485.863 346.868 489.297C349.259 490.261 351.662 491.175 354.065 492.113C356.469 493.052 358.897 493.914 361.249 494.981C361.391 494.994 361.481 494.75 361.339 494.698Z" fill="#455A64"/>
<path d="M375.46 288.747C369.793 299.537 364.96 310.829 360.038 321.979C355.116 333.129 350.361 344.241 345.721 355.417C336.494 377.76 327.9 400.352 319.941 423.192C315.417 436.053 311.189 449.119 307.089 462.16C307.025 462.353 307.321 462.417 307.385 462.237C315.006 439.165 323.257 416.299 331.867 393.587C340.478 370.875 349.603 348.472 359.267 326.236C361.983 319.994 364.738 313.774 367.531 307.575C370.332 301.364 373.25 295.191 375.871 288.915C375.949 288.709 375.602 288.49 375.46 288.747Z" fill="#455A64"/>
<path d="M254.273 264.647C255.854 266.319 355.802 268.608 356.316 267.978C357.678 266.255 344.749 202.775 334.326 178.507C320.999 147.371 313.404 144.606 308.919 142.754C303.187 140.388 292.751 140.941 290.232 141.995C287.366 143.166 274.964 157.094 271.237 168.347C263.77 190.968 252.885 263.181 254.273 264.647Z" fill="#455A64"/>
<path d="M317.065 148.297H283.586C284.203 147.577 284.871 146.895 285.385 146.278H314.944C315.6 146.844 316.306 147.512 317.065 148.297ZM321.28 153.57H279.409L277.983 155.576H322.629C322.167 154.873 321.717 154.204 321.28 153.57ZM325.791 160.849H274.731C274.346 161.517 273.986 162.135 273.639 162.855H326.935L325.791 160.849ZM329.582 168.141H271.313L271.235 168.346C271.043 168.912 270.863 169.517 270.67 170.147H330.546C330.225 169.453 329.903 168.797 329.582 168.141ZM332.975 175.42H269.192C269.025 176.063 268.845 176.706 268.678 177.426H333.849L332.975 175.42ZM336.008 182.699H267.406C267.264 183.368 267.11 183.985 266.956 184.718H336.753C336.509 184.024 336.252 183.381 336.008 182.699ZM338.578 189.991H265.838C265.684 190.66 265.542 191.328 265.414 191.997H339.234L338.578 189.991ZM340.853 197.27H264.334C264.206 197.939 264.064 198.556 263.936 199.276H341.444C341.239 198.595 341.046 197.926 340.84 197.27H340.853ZM342.948 204.562H262.933C262.805 205.231 262.689 205.848 262.561 206.568H343.526C343.308 205.9 343.128 205.244 342.935 204.562H342.948ZM344.914 211.841H261.61C261.481 212.51 261.365 213.127 261.25 213.847H345.416C345.248 213.179 345.081 212.51 344.901 211.841H344.914ZM346.778 219.12H260.337L259.99 221.139H347.253C347.086 220.471 346.919 219.789 346.765 219.12H346.778ZM348.538 226.412H259.116C259.014 227.081 258.898 227.698 258.795 228.418H348.988L348.538 226.412ZM350.209 233.691H258.024L257.715 235.698H350.71C350.556 235.029 350.351 234.36 350.196 233.691H350.209ZM351.816 240.97H256.854C256.752 241.652 256.662 242.334 256.559 242.99H352.227L351.816 240.97ZM353.332 248.262H255.826C255.723 248.957 255.634 249.626 255.556 250.269H353.705C353.589 249.613 353.448 248.97 353.319 248.262H353.332ZM354.733 255.542H254.875C254.798 256.249 254.721 256.93 254.657 257.561H355.08C354.964 256.918 354.849 256.236 354.72 255.542H354.733ZM356.018 262.834H254.168C254.073 263.438 254.104 264.055 254.258 264.647C254.444 264.753 254.65 264.819 254.862 264.84H356.211C356.147 264.248 356.057 263.579 355.954 262.834H356.018Z" fill="#263238"/>
<path d="M325.479 151.229C368.584 183.638 405.854 228.624 402.281 242.874C398.49 257.934 368.7 274.781 342.379 278.215C336.994 278.922 320.326 239.376 325.839 237.562C330.145 236.148 349.705 230.579 352.044 227.904C353.663 226.039 323.32 183.316 313.489 161.029C303.105 137.61 313.939 142.497 325.479 151.229Z" fill="#AD6359"/>
<path d="M336.955 236.315C336.955 236.315 320.505 237.961 309.799 239.556C303.823 240.443 293.722 242.874 289.635 245.536C283.518 249.51 260.462 270.061 265.32 275.758C269.715 280.903 276.359 272.749 276.359 272.749C276.359 272.749 268.263 280.993 274.2 284.774C280.138 288.555 287.797 277.057 287.797 277.057C287.797 277.057 278.595 285.211 285.317 288.632C291.152 291.603 301.356 279.334 301.356 279.334C301.356 279.334 290.753 286.844 296.434 290.471C302.705 294.483 320.312 278.022 320.312 278.022C334.385 279.591 343.06 278.626 352.981 275.848C354.793 275.385 336.955 236.315 336.955 236.315Z" fill="#AD6359"/>
<path d="M285.332 279.835C285.961 278.961 286.617 278.099 287.259 277.263C288.473 275.542 289.786 273.893 291.192 272.325C292.593 270.82 294.058 269.38 295.562 267.978C297.065 266.576 298.916 265.187 300.458 263.67C300.468 263.652 300.482 263.637 300.499 263.626C300.516 263.615 300.535 263.608 300.555 263.606C300.575 263.604 300.595 263.606 300.614 263.613C300.633 263.62 300.65 263.631 300.664 263.646C300.677 263.661 300.687 263.679 300.693 263.698C300.698 263.717 300.699 263.738 300.696 263.758C300.692 263.777 300.684 263.796 300.671 263.812C300.659 263.828 300.643 263.841 300.625 263.85C299.072 265.329 297.604 266.896 296.23 268.544C294.829 270.113 293.454 271.695 292.066 273.276C290.678 274.858 289.277 276.273 287.876 277.778C287.182 278.536 286.591 279.321 285.858 280.093C285.278 280.878 284.634 281.614 283.931 282.292C283.913 282.299 283.894 282.302 283.876 282.299C283.857 282.297 283.839 282.289 283.825 282.277C283.81 282.265 283.799 282.249 283.793 282.231C283.787 282.214 283.785 282.194 283.789 282.176C284.218 281.343 284.735 280.558 285.332 279.835Z" fill="#263238"/>
<path d="M274.727 274.499C276.88 271.232 279.255 268.117 281.834 265.175C284.454 262.252 287.36 259.598 290.508 257.253C290.624 257.176 290.766 257.33 290.676 257.433C288.105 260.365 285.394 263.246 282.733 266.139C281.448 267.554 275.729 274.152 275.022 274.769C274.855 274.923 274.624 274.692 274.727 274.499Z" fill="#263238"/>
<path d="M295.174 285.147C297.259 282.113 299.543 279.222 302.011 276.492C304.781 273.964 307.731 271.643 310.84 269.547C310.956 269.547 311.11 269.624 311.007 269.727C308.244 272.299 305.455 274.768 302.834 277.443C301.548 278.729 296.742 284.26 295.405 285.404C295.29 285.456 295.097 285.288 295.174 285.147Z" fill="#263238"/>
<path d="M373.403 191.097L340.58 212.394C340.58 212.394 316.226 174.661 309.916 156.785C303.605 138.908 310.957 138.87 328.191 151.82C345.425 164.771 373.403 191.097 373.403 191.097Z" fill="#455A64"/>
<path d="M323.205 148.297H307.783C307.714 147.625 307.714 146.949 307.783 146.278H320.133C320.995 146.869 322.1 147.551 323.205 148.297ZM330.428 153.57H308.863C309.042 154.213 309.248 154.856 309.492 155.576H332.985L330.428 153.57ZM339.424 160.849H311.497C311.767 161.492 312.063 162.135 312.371 162.855H341.801C341.005 162.173 340.272 161.517 339.411 160.849H339.424ZM347.97 168.141H314.877L315.88 170.147H350.258L347.97 168.141ZM356.234 175.42H318.617C318.977 176.076 319.337 176.706 319.709 177.426H358.444L356.234 175.42ZM364.292 182.699H322.627L323.771 184.718H366.477L364.292 182.699ZM372.196 189.991H326.829C327.228 190.673 327.613 191.341 328.012 191.997H372.08L373.365 191.136L372.196 189.991ZM331.173 197.27L332.381 199.276H360.835L363.919 197.27H331.173ZM335.633 204.562L336.918 206.568H349.667L352.764 204.562H335.633ZM340.221 211.841L340.593 212.433L341.506 211.841H340.221Z" fill="#263238"/>
<path d="M365.979 186.428C353.462 196.395 341.098 203.147 338.644 204.883C338.528 204.96 338.425 204.767 338.541 204.69C341.034 203.173 354.413 193.321 365.851 186.222C365.979 186.132 366.069 186.338 365.979 186.428Z" fill="#263238"/>
<path d="M342.691 210.98C342.005 211.277 341.339 211.621 340.699 212.008C337.049 205.707 333.117 199.328 329.403 193.052L323.953 183.844C322.077 180.641 320.355 177.298 318.299 174.211C318.294 174.202 318.287 174.194 318.279 174.187C318.27 174.18 318.261 174.175 318.251 174.172C318.241 174.169 318.23 174.168 318.219 174.17C318.209 174.171 318.199 174.174 318.189 174.179C318.18 174.184 318.172 174.191 318.165 174.199C318.159 174.207 318.154 174.217 318.151 174.227C318.148 174.237 318.147 174.248 318.148 174.258C318.149 174.269 318.152 174.279 318.157 174.288C319.496 177.337 320.988 180.316 322.63 183.213C322.296 182.776 321.974 182.313 321.614 181.927C320.805 180.963 320.008 179.998 319.288 178.969C319.173 178.815 318.903 178.969 319.018 179.124C319.712 180.101 320.304 181.117 320.959 182.146C321.614 183.175 322.244 184.152 322.951 185.143C323.658 186.133 324.352 186.995 325.084 187.882C325.163 187.999 325.249 188.11 325.341 188.216C326.344 190.055 327.321 191.894 328.362 193.708C332.011 200.048 340.301 212.819 340.416 212.78C341.252 212.321 342.047 211.792 342.794 211.198C342.845 211.082 342.845 210.954 342.691 210.98Z" fill="#263238"/>
<path d="M271.478 149.943C236.496 168.128 203.647 190.248 197.478 205.616C193.623 215.287 198.391 232.816 202.285 243.349C204.187 248.494 252.573 228.508 248.551 224.251C238.604 213.731 236.984 209.513 238.077 207.378C238.758 206.015 277.043 172.757 287.787 157.762C302.772 136.876 286.785 141.982 271.478 149.943Z" fill="#AD6359"/>
<path d="M266.838 271.746C262.263 274.318 256.891 262.499 256.891 262.499C256.723 264.756 255.768 266.882 254.192 268.505C251.288 271.232 245.748 267.862 245.748 267.862C245.08 270.163 243.737 272.211 241.893 273.74C238.847 276.067 232.768 273.482 232.768 273.482C230.99 275.258 228.63 276.332 226.124 276.505C219.415 276.71 213.722 268.184 210.034 262.808C206.345 257.432 200.96 238.694 199.572 235.235L233.899 211.301C233.899 211.301 257.264 230.747 260.695 237.691C263.574 243.543 273.817 267.824 266.838 271.746Z" fill="#AD6359"/>
<path d="M256.969 262.332C255.453 255.4 252.15 248.815 249.027 242.539C248.95 242.398 248.731 242.539 248.808 242.642C252.06 248.88 253.718 256.133 256.725 262.473C256.75 262.486 256.778 262.493 256.806 262.492C256.834 262.491 256.861 262.484 256.886 262.47C256.91 262.456 256.931 262.435 256.945 262.411C256.96 262.387 256.968 262.36 256.969 262.332Z" fill="#263238"/>
<path d="M246.121 267.438C245.606 265.895 244.893 264.425 244 263.066C243.139 261.574 242.265 260.095 241.366 258.616C239.554 255.684 237.677 252.79 235.711 249.948C235.621 249.819 235.415 249.948 235.493 250.064C237.292 252.996 239.052 255.954 240.723 258.95C241.559 260.455 242.381 261.972 243.204 263.477C243.878 264.958 244.714 266.36 245.697 267.657C245.732 267.7 245.781 267.729 245.836 267.74C245.891 267.752 245.947 267.744 245.997 267.718C246.046 267.693 246.086 267.651 246.108 267.6C246.131 267.549 246.135 267.492 246.121 267.438Z" fill="#263238"/>
<path d="M232.693 273.405C232.213 272.009 231.5 270.705 230.585 269.547C229.724 268.261 228.889 266.898 228.015 265.573C226.331 262.911 224.66 260.249 223.08 257.535C223.06 257.515 223.035 257.502 223.007 257.497C222.98 257.493 222.951 257.497 222.927 257.51C222.902 257.524 222.882 257.544 222.87 257.57C222.859 257.595 222.855 257.623 222.861 257.651C224.455 260.416 226.01 263.207 227.629 265.959C228.426 267.245 229.223 268.66 230.032 270.01C230.649 271.307 231.494 272.483 232.526 273.482C232.629 273.482 232.718 273.405 232.693 273.405Z" fill="#263238"/>
<path d="M220.945 177.195L246.559 202.338C246.559 202.338 280.243 172.488 289.998 156.232C299.752 139.976 292.568 138.459 273.072 147.718C253.576 156.978 220.945 177.195 220.945 177.195Z" fill="#474AA3"/>
<path d="M220.945 177.195L246.559 202.338C246.559 202.338 280.243 172.488 289.998 156.232C299.752 139.976 292.568 138.459 273.072 147.718C253.576 156.978 220.945 177.195 220.945 177.195Z" fill="#455A64"/>
<path d="M294.264 146.278C294.18 146.964 294.029 147.64 293.814 148.297H271.877L273.072 147.718C274.151 147.204 275.192 146.728 276.195 146.278H294.264ZM261.608 153.57L257.907 155.576H290.383C290.794 154.881 291.18 154.2 291.527 153.57H261.608ZM248.499 160.849L244.991 162.804H285.358C285.885 162.122 286.386 161.517 286.875 160.797L248.499 160.849ZM235.943 168.141L232.589 170.147H279.228C279.819 169.478 280.41 168.861 280.976 168.141H235.943ZM223.837 175.42L220.945 177.195L221.177 177.426H272.481L274.383 175.42H223.837ZM226.549 182.699L228.605 184.718H265.297L267.314 182.699H226.549ZM233.977 189.991L236.02 191.997H257.765L259.886 189.991H233.977ZM241.392 197.27L243.436 199.276H249.952L252.136 197.27H241.392Z" fill="#263238"/>
<path d="M251.877 195.766C240.053 185.709 231.314 175.253 229.284 173.247C229.194 173.144 229.361 173.002 229.451 173.105C231.353 175.189 243.215 186.082 252.07 195.611C252.172 195.727 251.993 195.868 251.877 195.766Z" fill="#263238"/>
<path d="M274.534 162.341C273.248 165.093 271.963 167.833 270.871 170.662C270.871 170.469 270.871 170.289 270.871 170.096C271.009 168.365 271.271 166.646 271.655 164.952C271.655 164.759 271.411 164.669 271.359 164.862C270.974 166.572 270.627 168.308 270.357 170.006C270.215 170.842 270.138 171.678 270.074 172.514C270.08 172.617 270.08 172.72 270.074 172.822C270.067 172.856 270.067 172.891 270.074 172.925C268.789 176.693 268.044 180.552 266.977 184.358C266.972 184.377 266.97 184.396 266.973 184.416C266.975 184.435 266.981 184.453 266.991 184.47C267.001 184.486 267.013 184.501 267.029 184.513C267.044 184.525 267.061 184.533 267.08 184.538C267.098 184.544 267.118 184.545 267.137 184.542C267.156 184.54 267.174 184.534 267.191 184.524C267.208 184.515 267.222 184.502 267.234 184.487C267.246 184.472 267.255 184.454 267.26 184.436C268.313 180.706 269.83 177.092 271.115 173.453C272.4 169.813 273.506 166.096 274.765 162.431C274.804 162.315 274.585 162.212 274.534 162.341Z" fill="#263238"/>
<path d="M292.557 159.345C298.186 160.888 308.249 152.58 312.349 145.687C312.632 145.211 312.079 140.106 311.706 133.868C311.488 130.01 311.334 125.856 311.475 121.998C311.475 121.2 287.057 126.988 287.057 126.988C288.261 131.869 288.865 136.879 288.856 141.906C288.821 142.434 288.744 142.959 288.625 143.475C288.617 143.565 288.617 143.655 288.625 143.745C287.982 146.729 287.121 157.84 292.557 159.345Z" fill="#AD6359"/>
<path d="M309.98 122.036C308.617 128.466 303.978 144.156 291.049 143.899C290.222 143.903 289.395 143.83 288.582 143.68C288.573 143.591 288.573 143.5 288.582 143.41C288.701 142.894 288.778 142.37 288.813 141.841C288.821 136.81 288.217 131.796 287.014 126.91C287.014 126.91 304.698 122.808 309.98 122.036Z" fill="#263238"/>
<path d="M285.574 108.468C285.69 114.397 281.565 119.297 276.36 119.387C271.155 119.477 266.849 114.77 266.734 108.828C266.618 102.887 270.744 97.9996 275.948 97.8967C281.153 97.7938 285.459 102.526 285.574 108.468Z" fill="#474AA3"/>
<path d="M278.374 120.96C284.164 120.848 288.756 115.404 288.629 108.8C288.503 102.196 283.705 96.9319 277.915 97.0432C272.124 97.1544 267.532 102.598 267.659 109.203C267.786 115.807 272.583 121.071 278.374 120.96Z" fill="#C7C7C7"/>
<path d="M310.224 89.9219C314.221 97.9726 313.836 123.205 308.721 129.674C301.305 139.049 287.13 142.187 278.648 132.812C270.435 123.707 271.528 90.835 277.44 84.7519C286.127 75.788 304.287 78.0387 310.224 89.9219Z" fill="#AD6359"/>
<path d="M290.359 111.85C290.359 111.85 290.488 111.927 290.488 112.004C290.411 113.702 290.617 115.656 292.146 116.235V116.338C290.27 116.055 290.025 113.444 290.359 111.85Z" fill="#263238"/>
<path d="M291.9 110.075C294.624 109.895 294.778 115.386 292.247 115.553C289.715 115.72 289.599 110.242 291.9 110.075Z" fill="#263238"/>
<path d="M280.857 112.172C280.857 112.172 280.716 112.262 280.728 112.326C280.831 114.024 280.651 115.978 279.135 116.596C279.135 116.596 279.135 116.699 279.135 116.686C281.024 116.364 281.217 113.766 280.857 112.172Z" fill="#263238"/>
<path d="M279.292 110.435C276.554 110.306 276.49 115.797 279.022 115.913C281.553 116.029 281.579 110.55 279.292 110.435Z" fill="#263238"/>
<path d="M294.301 105.677C293.551 105.623 292.804 105.525 292.065 105.381C291.262 105.382 290.482 105.12 289.842 104.635C289.671 104.446 289.569 104.206 289.55 103.952C289.531 103.698 289.598 103.445 289.739 103.233C290.081 102.852 290.518 102.568 291.006 102.412C291.494 102.256 292.015 102.233 292.515 102.346C293.565 102.411 294.552 102.87 295.278 103.632C295.415 103.82 295.499 104.041 295.521 104.272C295.543 104.504 295.501 104.737 295.401 104.947C295.301 105.157 295.145 105.335 294.952 105.464C294.758 105.592 294.533 105.666 294.301 105.677Z" fill="#263238"/>
<path d="M276.655 106.513C277.413 106.359 278.081 106.102 278.814 105.883C279.606 105.765 280.337 105.39 280.896 104.816C281.038 104.602 281.105 104.347 281.086 104.091C281.068 103.835 280.964 103.592 280.793 103.401C280.398 103.074 279.922 102.86 279.415 102.781C278.909 102.701 278.39 102.76 277.914 102.951C276.876 103.168 275.957 103.77 275.344 104.636C275.233 104.845 275.181 105.081 275.196 105.317C275.21 105.554 275.289 105.782 275.425 105.976C275.561 106.17 275.747 106.323 275.964 106.418C276.181 106.513 276.42 106.546 276.655 106.513Z" fill="#263238"/>
<path d="M293.648 127.565C293.249 127.964 292.851 128.529 292.247 128.594C291.615 128.599 290.989 128.472 290.409 128.221C290.409 128.221 290.294 128.221 290.332 128.311C290.585 128.638 290.922 128.89 291.306 129.042C291.691 129.193 292.109 129.238 292.517 129.172C292.859 129.071 293.164 128.87 293.393 128.595C293.621 128.321 293.764 127.985 293.802 127.629C293.828 127.526 293.699 127.501 293.648 127.565Z" fill="#263238"/>
<path d="M291.709 122.524C291.298 123.208 290.751 123.8 290.1 124.263C289.45 124.725 288.711 125.048 287.93 125.211C287.247 125.359 286.546 125.411 285.848 125.366C285.716 125.379 285.582 125.379 285.45 125.366H285.077C284.986 125.352 284.902 125.307 284.839 125.239C284.776 125.172 284.738 125.085 284.73 124.993C284.724 124.933 284.724 124.873 284.73 124.813V124.658C284.666 123.372 284.73 121.366 284.73 121.366C284.267 121.61 281.864 122.781 281.877 122.099C282.057 116.428 282.25 110.126 283.625 104.519C283.625 104.478 283.641 104.438 283.67 104.41C283.699 104.381 283.738 104.364 283.779 104.364C283.82 104.364 283.859 104.381 283.888 104.41C283.917 104.438 283.933 104.478 283.933 104.519C283.933 109.972 283.072 115.399 283.021 120.877C283.876 120.447 284.79 120.144 285.733 119.977C285.912 119.977 285.527 123.835 285.604 124.401C286.679 124.48 287.76 124.341 288.78 123.992C289.8 123.642 290.74 123.091 291.541 122.369C291.67 122.279 291.811 122.382 291.709 122.524Z" fill="#263238"/>
<path d="M286.604 124.672C287.346 125.587 288.31 126.295 289.405 126.729C290.016 126.924 290.671 126.924 291.282 126.729C292.631 126.331 292.631 125.083 292.348 124.029C292.192 123.465 291.972 122.922 291.693 122.408C290.284 123.691 288.499 124.485 286.604 124.672Z" fill="#263238"/>
<path d="M289.405 126.793C290.016 126.987 290.671 126.987 291.282 126.793C292.631 126.394 292.631 125.147 292.348 124.092C291.624 124.142 290.939 124.436 290.404 124.927C289.869 125.418 289.517 126.076 289.405 126.793Z" fill="#FF98B9"/>
<path opacity="0.2" d="M312.909 107.824C311.264 107.515 307.46 101.818 305.828 99.5545C304.195 97.291 303.553 85.3306 303.463 82.6299C306.359 84.3727 308.703 86.901 310.223 89.9219C311.996 93.5228 312.909 100.558 312.909 107.824Z" fill="#263238"/>
<path d="M282.711 91.9281C283.663 93.0296 284.88 93.8698 286.248 94.3694C287.615 94.869 289.087 95.0114 290.524 94.7831C291.995 94.5472 293.381 93.9373 294.549 93.0118C295.717 92.0863 296.628 90.8762 297.194 89.4974C297.194 89.4203 297.349 89.4974 297.323 89.4974C296.849 90.9931 295.977 92.331 294.799 93.3667C293.621 94.4025 292.183 95.0968 290.64 95.3747C289.112 95.5685 287.559 95.3568 286.138 94.7609C284.717 94.165 283.477 93.2059 282.544 91.9795C282.441 91.9538 282.621 91.8252 282.711 91.9281Z" fill="#263238"/>
<path d="M291.438 70.7858C296.386 70.8759 300.936 73.5894 302.773 76.9461C303.787 78.8572 304.127 81.055 303.737 83.1835C303.737 83.2735 303.544 83.2606 303.557 83.1835C303.647 81.2992 303.229 79.4256 302.347 77.7583C301.465 76.0909 300.152 74.6912 298.545 73.7052C296.788 72.561 294.788 71.8411 292.705 71.6022C290.622 71.3634 288.512 71.6123 286.542 72.3291C284.623 72.9955 282.999 74.3156 281.954 76.0587C281.864 76.2387 281.491 76.0587 281.568 75.9301C282.879 72.7792 286.94 70.7215 291.438 70.7858Z" fill="#263238"/>
<path d="M262.751 81.6919C263.541 79.2391 265.176 77.1469 267.365 75.7889C270.385 73.8984 273.791 74.1556 277.222 74.5028C277.325 74.5028 277.312 74.6572 277.222 74.6443C274.317 74.3742 271.362 74.2713 268.701 75.6603C266.497 76.7823 264.752 78.6377 263.766 80.9074C262.82 83.2375 262.745 85.8308 263.555 88.2118C264.364 90.5928 266.004 92.602 268.174 93.8709C269.442 94.5714 270.839 95.0046 272.28 95.1439C273.721 95.2833 275.176 95.1258 276.554 94.6812C276.656 94.6812 276.734 94.7969 276.631 94.8484C274.768 95.5327 272.751 95.6834 270.807 95.2835C268.863 94.8836 267.069 93.9489 265.627 92.5846C264.185 91.2203 263.152 89.4805 262.644 87.5607C262.136 85.641 262.173 83.6174 262.751 81.7177V81.6919Z" fill="#263238"/>
<path d="M311.897 94.8354C311.897 94.8354 316.498 85.9358 312.526 80.843C310.264 77.9622 302.888 78.4252 302.888 78.4252C300.885 75.5067 297.806 73.5036 294.328 72.8566C288.134 71.5705 280.821 75.1972 280.821 75.1972C280.821 75.1972 274.922 71.892 269.46 75.0943C261.839 79.557 262.919 91.2344 270.668 94.9125C276.118 97.4847 283.43 92.6105 283.43 92.6105C284.137 92.7005 291.424 96.996 296.834 90.4756C296.834 90.4756 301.32 94.3338 305.291 91.5688C305.924 92.7255 306.898 93.6593 308.079 94.2437C309.261 94.828 310.594 95.0346 311.897 94.8354Z" fill="#263238"/>
<path d="M308.324 110.757C308.324 110.757 312.707 101.999 316.601 103.452C320.495 104.905 318.002 117.033 314.03 119.232C313.537 119.55 312.985 119.764 312.406 119.863C311.828 119.961 311.236 119.941 310.665 119.804C310.095 119.667 309.558 119.416 309.087 119.066C308.616 118.715 308.221 118.273 307.926 117.766L308.324 110.757Z" fill="#AD6359"/>
<path d="M315.853 106.911C315.917 106.911 315.943 106.988 315.853 107.026C313.064 108.66 311.907 111.643 311.226 114.653C311.355 114.331 311.553 114.041 311.805 113.803C312.057 113.564 312.357 113.383 312.686 113.272C313.014 113.161 313.363 113.122 313.707 113.158C314.052 113.195 314.385 113.305 314.683 113.482C314.773 113.482 314.683 113.663 314.683 113.65C314.145 113.554 313.59 113.626 313.093 113.856C312.597 114.086 312.183 114.463 311.907 114.936C311.462 115.752 311.109 116.614 310.853 117.508C310.751 117.804 310.249 117.726 310.314 117.405C309.632 113.611 311.792 107.888 315.853 106.911Z" fill="#263238"/>
<path d="M298.775 128.311L306.768 125.109L313.336 117.354L312.14 116.338L305.83 123.797L298.196 126.858L298.775 128.311Z" fill="#C7C7C7"/>
<path d="M299.647 127.077C298.94 124.749 292.462 125.431 293.542 128.955C294.621 132.478 300.43 129.366 299.647 127.077Z" fill="#37474F"/>
<path d="M316.728 103.221C316.728 103.221 317.923 90.2827 314.325 83.0422C310.302 74.9786 293.004 66.9536 280.82 75.1972C280.82 75.1972 300.406 72.2136 309.184 83.4795C312.885 88.225 312.397 103.452 312.397 103.452L316.728 103.221Z" fill="#C7C7C7"/>
<path d="M325.405 110.207C325.642 103.606 321.142 98.0855 315.354 97.8772C309.566 97.6689 304.682 102.851 304.444 109.453C304.207 116.054 308.707 121.574 314.495 121.783C320.283 121.991 325.167 116.808 325.405 110.207Z" fill="#C7C7C7"/>
<path d="M307.5 109.188C307.281 115.117 311.355 120.081 316.496 120.261C321.636 120.442 326.096 115.799 326.302 109.87C326.507 103.941 322.446 98.9771 317.305 98.7842C312.165 98.5913 307.705 103.26 307.5 109.188Z" fill="#474AA3"/>
<path d="M315.275 147.473C312.634 150.762 309.811 153.901 306.819 156.874C303.927 159.575 300.393 162.018 296.538 162.404C292.682 162.79 288.827 162.044 287.4 157.363C286.243 153.646 286.398 149.814 287.014 145.029C287.014 144.992 287 144.956 286.973 144.929C286.947 144.903 286.911 144.888 286.873 144.888C286.836 144.888 286.8 144.903 286.773 144.929C286.747 144.956 286.732 144.992 286.732 145.029C285.909 151.177 285.087 160.706 290.677 162.777C296.949 165.105 303.041 161.825 307.384 157.478C310.414 154.491 313.112 151.184 315.43 147.614C315.43 147.499 315.327 147.37 315.275 147.473Z" fill="#263238"/>
<path d="M347.486 288.273H233.196V293.404H347.486V288.273Z" fill="#C7C7C7"/>
<path d="M323.017 288.273L326.937 293.404H233.196V288.273H323.017Z" fill="#A6A6A6"/>
<path d="M318.134 293.403H206.749L197.482 217.706H308.868L318.134 293.403Z" fill="#C7C7C7"/>
<path d="M264.591 255.554C264.608 256.44 264.448 257.321 264.12 258.144C263.792 258.968 263.303 259.717 262.682 260.348C262.06 260.98 261.319 261.481 260.502 261.821C259.684 262.162 258.807 262.336 257.921 262.332C256.116 262.326 254.385 261.613 253.098 260.347C251.81 259.08 251.069 257.36 251.032 255.554C251.01 254.667 251.166 253.785 251.491 252.959C251.816 252.134 252.303 251.382 252.924 250.749C253.545 250.115 254.287 249.613 255.106 249.272C255.924 248.931 256.803 248.759 257.69 248.764C259.497 248.774 261.229 249.488 262.518 250.757C263.807 252.025 264.551 253.746 264.591 255.554Z" fill="white"/>
<path d="M574.471 303.41H455.31V318.688H574.471V303.41Z" fill="#455A64"/>
<path d="M571.103 318.688H458.663V323.459H571.103V318.688Z" fill="#37474F"/>
<path d="M555.049 434.859H474.726V439.63H555.049V434.859Z" fill="#455A64"/>
<path d="M472.117 505.001H466.167V323.46H482.399L472.117 505.001Z" fill="#455A64"/>
<path d="M482.399 323.46L481.795 334.199H466.167V323.46H482.399Z" fill="#263238"/>
<path d="M557.649 505.001H563.612V323.46H547.367L557.649 505.001Z" fill="#455A64"/>
<path d="M547.367 323.46L547.984 334.199H563.599V323.46H547.367Z" fill="#263238"/>
<path d="M550.502 265.316H458.664V280.981H550.502V265.316Z" fill="#455A64"/>
<path d="M543.329 265.316H534.77V280.981H543.329V265.316Z" fill="#EBEBEB"/>
<path d="M474.396 265.316H465.837V280.981H474.396V265.316Z" fill="#EBEBEB"/>
<path d="M564.114 280.98H463.331V303.421H564.114V280.98Z" fill="#263238"/>
<path d="M517.423 301.081H564.088V283.294H517.423V301.081Z" fill="#DEE2E6"/>
<path d="M564.1 286.961C557.828 286.832 540.761 286.614 540.761 286.614L536.238 286.691C529.966 286.742 523.699 286.832 517.436 286.961C523.707 287.089 529.975 287.175 536.238 287.218L540.761 287.295C540.761 287.295 557.828 287.076 564.1 286.961Z" fill="#ADB5BD"/>
<path d="M564.1 290.446C557.828 290.317 540.761 290.099 540.761 290.099L536.238 290.176C529.966 290.227 523.699 290.317 517.436 290.446C523.707 290.574 529.975 290.66 536.238 290.703L540.761 290.793C540.761 290.793 557.828 290.574 564.1 290.446Z" fill="#ADB5BD"/>
<path d="M564.1 293.982C557.828 293.853 540.761 293.647 540.761 293.647L536.238 293.724C529.966 293.724 523.699 293.81 517.436 293.982C523.707 294.11 529.975 294.2 536.238 294.252L540.761 294.329C540.761 294.329 557.828 294.059 564.1 293.982Z" fill="#ADB5BD"/>
<path d="M564.1 297.429C557.828 297.301 540.761 297.082 540.761 297.082L536.238 297.159C529.966 297.211 523.699 297.301 517.436 297.429C523.707 297.541 529.975 297.626 536.238 297.686L540.761 297.764C540.761 297.764 557.828 297.545 564.1 297.429Z" fill="#ADB5BD"/>
<path d="M562.837 253.355H472.489V265.316H562.837V253.355Z" fill="#474AA3"/>
<path d="M533.098 254.602H472.477V264.081H533.098V254.602Z" fill="#DEE2E6"/>
<path d="M476.414 262.126C481.135 262.178 485.847 262.212 490.551 262.229H504.688H518.825C523.554 262.229 528.266 262.195 532.962 262.126C528.245 262.126 523.516 262.049 518.825 262.023H504.688H490.551C485.86 262.049 481.131 262.075 476.414 262.126Z" fill="#ADB5BD"/>
<path d="M476.414 260.275C481.131 260.275 485.86 260.352 490.551 260.365H504.688H518.825C523.554 260.365 528.284 260.365 532.962 260.275C528.241 260.223 523.528 260.189 518.825 260.172H504.688H490.551C485.847 260.189 481.135 260.223 476.414 260.275Z" fill="#ADB5BD"/>
<path d="M476.414 258.409C481.131 258.409 485.86 258.487 490.551 258.512H504.688H518.825C523.554 258.512 528.284 258.512 532.962 258.409C528.241 258.358 523.528 258.324 518.825 258.307H504.688H490.551C485.847 258.324 481.135 258.358 476.414 258.409Z" fill="#ADB5BD"/>
<path d="M476.414 256.545C481.135 256.596 485.847 256.63 490.551 256.648H504.688H518.825C523.554 256.648 528.266 256.613 532.962 256.545C528.245 256.545 523.516 256.467 518.825 256.442H504.688H490.551C485.86 256.467 481.131 256.493 476.414 256.545Z" fill="#ADB5BD"/>
<path d="M246.459 80.2254C248.96 76.4639 250.301 72.0498 250.315 67.5319C250.315 51.469 232.682 38.4283 210.937 38.4283C189.192 38.4283 171.572 51.469 171.572 67.5319C171.572 83.5949 189.192 96.6355 210.937 96.6355C220.599 96.7967 230.078 93.9866 238.093 88.5848L251.677 92.07L246.459 80.2254Z" fill="white"/>
<path d="M246.461 80.2256C248.804 76.6526 250.107 72.4982 250.227 68.2266C250.283 63.9744 249.138 59.7928 246.924 56.1633C244.684 52.5674 241.731 49.4686 238.249 47.058C234.803 44.6106 230.996 42.7185 226.965 41.4508C222.939 40.1788 218.776 39.393 214.563 39.1101C210.352 38.8586 206.126 39.0916 201.969 39.8046C197.814 40.5011 193.778 41.7782 189.978 43.5985C186.167 45.3763 182.69 47.7948 179.697 50.749C176.719 53.6573 174.492 57.2452 173.206 61.2047C171.942 65.1756 171.888 69.4335 173.052 73.4352C174.277 77.4313 176.456 81.0686 179.401 84.0323C182.35 87.0204 185.788 89.4822 189.567 91.3114C193.361 93.1462 197.393 94.4446 201.544 95.1696C205.689 95.9598 209.913 96.2448 214.126 96.0184C222.618 95.6825 230.853 93.0127 237.928 88.302L238.043 88.212H238.172L251.705 91.813L251.602 92.0702L246.461 80.2256ZM246.461 80.2256L251.859 91.9802L251.974 92.2374H251.692L238.095 88.9322H238.339C231.22 93.8305 222.883 96.6575 214.255 97.0987C205.625 97.7235 196.979 96.1251 189.143 92.456C185.226 90.5908 181.661 88.063 178.604 84.984C175.499 81.86 173.204 78.0232 171.921 73.8081C170.678 69.5699 170.723 65.0573 172.05 60.8446C173.417 56.6855 175.767 52.9179 178.9 49.8616C182.005 46.8332 185.598 44.3506 189.528 42.5182C193.424 40.6555 197.566 39.3565 201.827 38.66C206.071 37.9397 210.385 37.7238 214.679 38.017C218.97 38.3566 223.204 39.2204 227.286 40.5891C231.38 41.9312 235.24 43.9055 238.724 46.4407C242.24 48.9462 245.191 52.162 247.386 55.8804C249.563 59.6211 250.641 63.9004 250.497 68.2266C250.286 72.5226 248.889 76.6761 246.461 80.2256Z" fill="#263238"/>
</svg>
