<?xml version="1.0" standalone="no"?>
<!DOCTYPE svg PUBLIC "-//W3C//DTD SVG 20010904//EN"
 "http://www.w3.org/TR/2001/REC-SVG-20010904/DTD/svg10.dtd">
<svg version="1.0" xmlns="http://www.w3.org/2000/svg"
 width="1667.000000pt" height="1667.000000pt" viewBox="0 0 1667.000000 1667.000000"
 preserveAspectRatio="xMidYMid meet">
<metadata>
Created by potrace 1.16, written by Peter Selinger 2001-2019
</metadata>
<g transform="translate(0.000000,1667.000000) scale(0.100000,-0.100000)"
fill="#000000" stroke="none">
<path d="M7250 8805 l1 -755 79 0 80 0 0 755 0 755 -80 0 -80 0 0 -755z"/>
<path d="M3439 9190 c-123 -187 -322 -488 -441 -670 -120 -181 -218 -331 -218
-334 0 -7 91 -69 95 -64 1 1 83 125 181 273 97 149 263 401 369 560 105 160
200 305 210 323 11 17 22 32 26 32 12 0 250 -383 245 -395 -2 -6 -124 -192
-270 -413 -146 -221 -266 -404 -266 -407 0 -3 272 -5 605 -5 333 0 605 3 605
6 0 4 -15 30 -33 58 -30 45 -90 139 -242 376 -187 291 -235 368 -240 382 -4
10 38 84 120 207 69 105 129 191 133 191 4 0 35 -42 69 -93 34 -50 119 -177
190 -282 71 -104 200 -296 288 -425 87 -129 182 -270 210 -312 27 -43 52 -78
55 -78 3 0 26 15 51 33 l46 32 -180 265 c-98 146 -263 389 -365 540 -102 151
-226 335 -275 407 l-91 133 -160 -245 c-89 -134 -164 -244 -168 -244 -8 -1
-90 123 -237 357 -46 72 -84 132 -86 132 -1 0 -103 -153 -226 -340z m677 -582
c71 -111 157 -245 191 -298 l62 -95 -386 -3 c-212 -1 -388 0 -390 2 -4 4 385
596 391 596 2 0 61 -91 132 -202z"/>
<path d="M9201 9490 c-273 -58 -467 -237 -552 -510 -20 -64 -24 -96 -24 -220
0 -124 3 -156 23 -220 40 -127 98 -225 182 -309 133 -135 279 -199 472 -208
219 -11 398 53 530 190 l50 52 -34 28 c-18 16 -47 40 -65 54 l-32 25 -51 -50
c-157 -155 -410 -187 -614 -79 -271 144 -367 543 -199 830 72 122 170 202 303
247 55 19 81 21 166 18 90 -4 110 -8 175 -40 43 -20 93 -54 119 -80 l46 -45
54 39 c30 22 64 46 75 54 19 13 18 15 -20 55 -60 62 -149 116 -239 145 -64 21
-106 27 -201 30 -66 2 -140 -1 -164 -6z"/>
<path d="M6301 9443 c-7 -16 -75 -170 -151 -343 -76 -173 -209 -475 -295 -670
-86 -195 -159 -361 -162 -368 -4 -10 16 -12 93 -10 l98 3 71 170 72 170 354 0
354 0 70 -172 70 -173 98 0 c53 0 97 3 97 8 0 4 -134 323 -297 709 l-298 703
-81 0 c-78 0 -81 -1 -93 -27z m227 -536 c72 -183 132 -337 132 -342 0 -10
-546 -12 -556 -2 -6 5 277 677 285 677 3 0 66 -150 139 -333z"/>
<path d="M7800 9125 l0 -135 -105 0 -105 0 0 -65 0 -65 104 0 105 0 3 -332 c3
-295 5 -338 21 -373 44 -97 116 -131 261 -122 50 3 106 10 124 17 32 12 32 12
32 82 l0 70 -27 -7 c-16 -3 -61 -9 -101 -12 -84 -6 -115 8 -137 61 -16 37 -18
94 -16 394 l1 222 135 0 135 0 0 65 0 65 -135 0 -134 0 -3 133 -3 132 -77 3
-78 3 0 -136z"/>
<path d="M10294 8992 c-72 -22 -135 -53 -187 -95 l-38 -30 52 -53 c52 -53 53
-53 74 -35 101 93 341 112 428 33 32 -29 57 -89 57 -137 l0 -45 -122 0 c-221
-1 -356 -39 -444 -124 -144 -141 -97 -372 94 -448 47 -19 76 -23 167 -23 102
0 115 2 170 29 32 16 78 49 102 74 l43 44 0 -29 c0 -15 3 -45 6 -65 l7 -38 71
0 71 0 -3 328 c-4 360 -10 411 -63 493 -60 94 -143 130 -309 135 -90 3 -128 0
-176 -14z m386 -550 c0 -170 -108 -276 -281 -275 -62 0 -85 5 -119 24 -57 32
-83 79 -76 141 7 63 28 93 89 123 66 31 134 42 275 44 l112 1 0 -58z"/>
<path d="M11453 8990 c-63 -22 -98 -46 -146 -99 -19 -21 -38 -37 -41 -33 -3 3
-6 34 -6 69 l0 63 -77 0 -76 0 6 -97 c4 -54 7 -266 7 -470 l0 -373 80 0 80 0
0 268 c-1 288 4 336 48 415 46 85 124 129 229 128 98 -1 147 -38 173 -131 5
-20 10 -180 10 -358 l1 -322 79 0 79 0 3 313 3 312 27 51 c52 100 123 139 238
132 86 -5 137 -36 171 -105 24 -47 24 -54 27 -375 l3 -328 79 0 79 0 1 303 c0
221 -3 324 -14 385 -31 177 -124 259 -306 270 -141 8 -227 -29 -303 -127 l-30
-40 -32 45 c-41 57 -87 91 -149 109 -69 21 -179 18 -243 -5z"/>
<path d="M13207 8999 c-55 -13 -126 -52 -179 -98 -25 -23 -48 -41 -50 -41 -2
0 -2 29 0 65 l3 65 -81 0 -80 0 0 -700 0 -700 80 0 80 0 0 312 0 312 28 -37
c62 -83 171 -136 297 -144 147 -10 260 32 360 132 102 102 152 241 141 391
-16 224 -146 385 -353 439 -62 16 -185 18 -246 4z m205 -150 c89 -23 182 -118
210 -212 7 -23 12 -76 12 -117 0 -41 -5 -94 -12 -117 -18 -62 -71 -134 -125
-170 -170 -114 -405 -49 -490 135 -18 39 -22 65 -22 152 0 128 22 185 95 254
90 84 202 109 332 75z"/>
</g>
</svg>
