<svg width="21" height="21" viewBox="0 0 21 21" fill="none" xmlns="http://www.w3.org/2000/svg">
<path d="M20.8887 10.2227C20.8887 15.7467 16.4111 20.2227 10.8887 20.2227C5.36621 20.2227 0.888672 15.7467 0.888672 10.2227C0.888672 4.70181 5.36621 0.222656 10.8887 0.222656C16.4111 0.222656 20.8887 4.70181 20.8887 10.2227ZM10.8887 12.2388C9.86428 12.2388 9.03383 13.0692 9.03383 14.0936C9.03383 15.118 9.86428 15.9485 10.8887 15.9485C11.9131 15.9485 12.7435 15.118 12.7435 14.0936C12.7435 13.0692 11.9131 12.2388 10.8887 12.2388ZM9.12766 5.57161L9.42678 11.0555C9.44077 11.3121 9.65295 11.513 9.90992 11.513H11.8674C12.1244 11.513 12.3366 11.3121 12.3506 11.0555L12.6497 5.57161C12.6648 5.29443 12.4441 5.06137 12.1665 5.06137H9.61077C9.33319 5.06137 9.11254 5.29443 9.12766 5.57161Z" fill="#D10909"/>
</svg>
