<svg width="20" height="20" viewBox="0 0 20 20" fill="none" xmlns="http://www.w3.org/2000/svg">
<path d="M10 0.3125C4.65012 0.3125 0.3125 4.65168 0.3125 10C0.3125 15.3514 4.65012 19.6875 10 19.6875C15.3499 19.6875 19.6875 15.3514 19.6875 10C19.6875 4.65168 15.3499 0.3125 10 0.3125ZM10 4.60938C10.9061 4.60938 11.6406 5.34391 11.6406 6.25C11.6406 7.15609 10.9061 7.89062 10 7.89062C9.09391 7.89062 8.35938 7.15609 8.35938 6.25C8.35938 5.34391 9.09391 4.60938 10 4.60938ZM12.1875 14.5312C12.1875 14.7901 11.9776 15 11.7188 15H8.28125C8.02238 15 7.8125 14.7901 7.8125 14.5312V13.5938C7.8125 13.3349 8.02238 13.125 8.28125 13.125H8.75V10.625H8.28125C8.02238 10.625 7.8125 10.4151 7.8125 10.1562V9.21875C7.8125 8.95988 8.02238 8.75 8.28125 8.75H10.7812C11.0401 8.75 11.25 8.95988 11.25 9.21875V13.125H11.7188C11.9776 13.125 12.1875 13.3349 12.1875 13.5938V14.5312Z" fill="#6A6FF5"/>
</svg>
