<svg width="20" height="20" viewBox="0 0 20 20" fill="none" xmlns="http://www.w3.org/2000/svg">
<path d="M19.7988 10.1094C19.7988 15.4597 15.4616 19.7969 10.1113 19.7969C4.76105 19.7969 0.423828 15.4597 0.423828 10.1094C0.423828 4.7591 4.76105 0.421875 10.1113 0.421875C15.4616 0.421875 19.7988 4.7591 19.7988 10.1094ZM8.99078 15.2388L16.1783 8.05133C16.4223 7.80727 16.4223 7.41152 16.1783 7.16746L15.2944 6.28359C15.0504 6.03949 14.6546 6.03949 14.4105 6.28359L8.54883 12.1452L5.81215 9.40856C5.56809 9.16449 5.17234 9.16449 4.92824 9.40856L4.04437 10.2924C3.80031 10.5365 3.80031 10.9322 4.04437 11.1763L8.10688 15.2388C8.35098 15.4829 8.74668 15.4829 8.99078 15.2388Z" fill="#55B938"/>
</svg>
