<svg width="22" height="19" viewBox="0 0 22 19" fill="none" xmlns="http://www.w3.org/2000/svg">
<path d="M20.9848 16.295C21.6614 17.4676 20.8122 18.9334 19.461 18.9334H1.87258C0.51879 18.9334 -0.32646 17.4653 0.348729 16.295L9.14305 1.04705C9.81988 -0.126121 11.5151 -0.123995 12.1907 1.04705L20.9848 16.295ZM10.6669 13.1425C9.73577 13.1425 8.98094 13.8973 8.98094 14.8285C8.98094 15.7596 9.73577 16.5144 10.6669 16.5144C11.598 16.5144 12.3529 15.7596 12.3529 14.8285C12.3529 13.8973 11.598 13.1425 10.6669 13.1425ZM9.06623 7.08237L9.3381 12.0669C9.35082 12.3002 9.54368 12.4828 9.77726 12.4828H11.5565C11.7901 12.4828 11.983 12.3002 11.9957 12.0669L12.2676 7.08237C12.2813 6.83043 12.0807 6.61859 11.8284 6.61859H9.50534C9.25304 6.61859 9.05248 6.83043 9.06623 7.08237Z" fill="#F38920"/>
</svg>
